<?xml version="1.0" encoding="utf-8"?>
<!-- Generator: Adobe Illustrator 25.4.1, SVG Export Plug-In . SVG Version: 6.00 Build 0)  -->
<svg version="1.1" id="Graphic_Elements" xmlns="http://www.w3.org/2000/svg" xmlns:xlink="http://www.w3.org/1999/xlink" x="0px"
	 y="0px" viewBox="0 0 1200 1200" style="enable-background:new 0 0 1200 1200;" xml:space="preserve">
<style type="text/css">
	.st0{fill:#FCD688;}
	.st1{fill:#FBCA75;}
	.st2{fill:#231F20;}
	.st3{fill:#FDE29B;}
	.st4{fill:#EFB35F;}
	.st5{fill:#FABE6F;}
	.st6{fill:#FFFFFF;}
	.st7{fill:#5A5758;}
</style>
<g id="g16">
	<g id="g12">
		<g id="g8779">
			<g id="path490">
				<path class="st0" d="M607.7,856.6c27.2-58.3,21.1-87.2,31.3-150.7c6.3-39.4,3.5-69.7,0.2-110.5c-3.9-47.9-37-51.8-76.9-31.8
					c-57.5,28.8-62.4,55.8-56.8,122.4c5.6,67.9,17.2,109.7-11.4,179.1c-3.5,8.6-21.2,48.6-25.6,56.9c-9.4,17.7-14.2,97.9-14.2,119.4
					c0,30.5-8.5,45.4,5.7,56.8c10.6,8.5,80,15.8,93.8,5.7c10.6-7.7,5-33.5-17.4-58.4c-7.6-13.7-0.9-68.5,0.4-75.2
					C546.9,914.6,584.5,906.3,607.7,856.6"/>
			</g>
			<g id="path492">
				<path class="st1" d="M606.1,837.3c0.3,1.8,0.7,3.5,1.2,5.2c17.6-8.8,18.2-39.4,21.1-56.1c4.7-26.7,6.3-53.7,10.6-80.4
					c6.3-39.4,3.5-69.7,0.2-110.5c-3.9-47.9-37-51.8-76.9-31.8c-57.5,28.8-62.4,55.8-56.8,122.4c2.7,32.7,8.5,65.7,7,98.5
					c-1.9,42.6-16.8,81.5-35.6,119.3c10.6-13.2,20.2-27.2,31.6-39.8c9-10,20.5-29.7,32.5-35.5c2.8,8.6,3.4,17.5,6.1,26.3
					c11.9-11.8,20.5-27.2,36.5-35.1c0.3,4.7,4,10.5,5.7,14.3c5-5,9.8-10.2,14.2-15.6C605.4,824.6,605.1,831,606.1,837.3"/>
			</g>
			<g id="path494">
				<path class="st2" d="M524.1,1111c-7.9,0-15-0.5-18.7-0.8c-18.8-1.5-40.6-5.3-46.9-10.3c-10.7-8.6-9.7-18.9-8-34.5
					c0.9-8,1.5-16.1,1.5-24.1c0-19.1,4.5-101.5,14.5-120.4c4.4-8.2,22-48.2,25.5-56.7c23.6-57.3,19.5-96.4,14.3-145.9
					c-1.1-10.2-2.2-20.8-3.1-32.1c-5.4-65.2-1.7-94.7,58-124.6c25-12.5,45.7-15,59.8-7c11.9,6.7,18.8,20.3,20.4,40.6l0.3,3.8
					c3.2,38.4,5.7,68.8-0.5,107.2c-3,18.7-4.6,34.6-6,48.7c-3.4,34.1-6.1,61.1-25.5,102.5c-9.9,21.3-23.3,35.4-36.3,49
					c-8.5,8.9-16.6,17.4-23,27.3l0,0c-6.3,9.8-12.7,30.5-14.4,47.1c-0.1,0.9-0.3,2.3-0.7,4.3c-2.3,13.4-8.3,49.2,7.1,64.6
					c13,13,20.4,29,19.4,42c-0.5,6.2-2.9,11.1-6.9,14C549.2,1110,535.8,1111,524.1,1111z M601.9,554.5c-10.8,0-23.9,3.7-38.7,11.1
					c-57.5,28.8-60.9,55.9-55.6,120.2c0.9,11.3,2,21.8,3.1,32c5.3,50.2,9.4,89.8-14.6,148.2c-3.5,8.5-21.3,48.8-25.7,57.1
					c-9,17-14,95.5-14,118.4c-0.1,8.2-0.6,16.4-1.5,24.6c-1.6,15.1-2.4,23.4,6.4,30.5c9.2,7.4,77.7,15.4,91.1,5.7
					c2.9-2.2,4.7-5.9,5.1-10.8c0.7-9.1-3.7-24-18.1-38.4c-17-17-10.7-54.4-8.4-68.5c0.3-1.8,0.5-3.2,0.6-4
					c1.6-15.1,7.7-37.6,15.1-49.1l0,0c6.7-10.3,14.8-18.9,23.5-28c12.7-13.3,25.9-27.1,35.5-47.8c19-40.8,21.7-67.4,25.1-101.1
					c1.4-14.1,3-30.2,6-49c6.1-37.9,3.6-68,0.4-106.1l-0.3-3.8c-1.5-18.7-7.6-31.2-18.1-37.1C613.6,555.7,607.8,554.4,601.9,554.5
					L601.9,554.5z M548.6,932.6L548.6,932.6z"/>
			</g>
			<g id="path496">
				<path class="st2" d="M511.1,1110.4c-1.2,0-2.2-1-2.2-2.2c0-2.8,0.1-5.5,0.2-8.2c0.4-13.4,0.8-26.1-8.2-37.3
					c-0.8-1-0.6-2.4,0.3-3.2s2.4-0.6,3.2,0.3l0,0c10,12.5,9.6,26.6,9.2,40.2c-0.1,2.7-0.2,5.4-0.2,8.1
					C513.3,1109.4,512.3,1110.4,511.1,1110.4C511.1,1110.4,511.1,1110.4,511.1,1110.4z"/>
			</g>
			<g id="path498">
				<path class="st2" d="M539.5,1109c-1.2,0-2.2-1-2.2-2.2c0-16.9-2.7-26.2-12.5-42.9c-0.6-1.1-0.3-2.4,0.8-3.1
					c1.1-0.6,2.4-0.3,3.1,0.8c10.2,17.4,13.1,27.5,13.1,45.2C541.8,1108,540.8,1109,539.5,1109z"/>
			</g>
			<g id="path500">
				<path class="st2" d="M485.5,1106.2c-1.2,0-2.2-1-2.2-2.2v-1.5c0-11.8,0-31.7-7.9-39.6c-0.9-0.8-1-2.3-0.1-3.2
					c0.8-0.9,2.3-1,3.2-0.1c0,0,0.1,0.1,0.1,0.1c9.2,9.2,9.2,29.4,9.2,42.8v1.4C487.7,1105.2,486.7,1106.2,485.5,1106.2
					L485.5,1106.2z"/>
			</g>
			<g id="path502">
				<path class="st0" d="M982.1,557.6c0.3,6.2,1.1,12.4,2.2,18.5c1.6,8.3,8.7,20.7,0.9,28.4c-2.6-3-5-6.7-7.5-10.1
					c-3.3,6,1.3,18.9,1.5,26.2c0.4,11.9,0.1,23.8-1.1,35.6c-1,10.7-2.5,21.3-4.5,32c-1.8,9.7,0,19.1-3.3,28.6
					c-4.1,11.9-10.7,23.1-15.2,34.9c-11.1,29-13.3,55.1-17.6,85.2c-7.2,49.5-28.5,137.4-28.5,188.9c0,28.1,7.1,31.3,24.2,58.3
					c18.9,29.9,15.6,58.2-1.4,59.7c-19.2,1.6-62.4,3.4-76.8-8.5c-17-14.2-22.7-64.8-22.7-82.4c0-49.4,9.1-59.5,11.4-108
					c1.5-32.3,4.4-64.5,5.8-96.7c0.6-12.5,5.1-33.9,0.8-45.7c-4.6-12.6-10-8.2-21.2-8.6c-10.6-0.4-12.3-3-21-8
					c-1.4,4-3.8,5.9-3.1,11c-0.5-0.5-17.4-16-14.2-16.7c-14.4,15-20.1,30.1-24,52c-3.1,17.5-6.7,43.6-9.4,61.5
					c-6.4,42.6-19,93.2-19,136.4c0,29.6,11.4,28.4,25.6,54c15.4,27.7,23.6,20.9,19.9,51.2c-3.2,9.7-27,16.9-52.6,11.4
					c-19.3-4.2-41.6-6.9-46.9-17.1c-19.4-36.9-15.1-47.3-19.9-88.1C658.9,993,675,910.3,677,862.5c0.9-20.3,4.9-42.8-0.6-62.8
					c-4.3-15.6-13.8-24.7-15.2-42.2c-11.4,5.7-24.6,18.5-38.9,19.1c1.2-20.2-12.6-11.5-25.6-11.3c0.5-2.5,0.1-5-1.3-7.2
					c-18.4-1.8-23.1,13.1-38.4,18.6c-0.6-30.4-8.5-48.9-39.9-59c0,7.4-4.4,13.8-3.8,21.4c-10.4-6.9-17.4-20.4-22.2-30.7
					c-12.4,18.4-18.8,66.8-34.2,82.8c-14.7,15.4-27,49.8-49.7,66.8c-30.1,22.6-45,56.4-49.8,92.4c-4.9,36.9-10,53.7-5.7,91
					c3.1,26.2,32.9,51.4,2.8,72.5c-19.4,13.6-75.9-1.2-89.5-17.1c-19.8-22.9,10.8-82.5,12.1-110.4c1.9-41.5,4.9-51.5,9.2-92.8
					c5.3-49.8,21.9-53.9,42.6-96.7c14.1-29.2,15.5-60.9,19.9-96.7c5-39.8-2-69.6,0-105.2c1-19.3,2.8-65.4,39.8-116.5
					c-15,20.8-28.7,49.7-49.9,64.9c-14.4,10.4-41.9,34.6-60.4,34.2c2.3-23.2-9.5-18.5-23.3-8.7c-14.9,10.6-30.1,19.7-44.4,31.3
					c0.8-3.5-2.5-6.2-2-9.8c-13.7-0.7-25-0.4-38.3,2.4c-6.4,1.3-14.8,6.1-21.3,6.2c-1.7,0-6.2,0.8-7.4-0.4c-1-1-0.3-3.7-0.2-4.9
					c0.3-5.4,3.5-12.6,1.8-17.8c-6.6-0.4-12.9-1.5-19.6-1.2c-6.5,0.3-12.9,1.3-19.4,1.4c14.4-32.5,41.6-58.7,70.8-77
					c25.1-15.8,60.5-19.8,87.8-32.8c22.4-10.7,74-21,99.1-23.5c71.1-7.1,103.4-24.6,175.9-24.9c46.3-0.1,108.5-5.8,151-28.4
					c32.6-17.3,81.2-62.9,98.3-108.4c7.3-19.4,17.7-30.8,16.8-50c-1.2-26.8,7.4-33,5.7-59.7c-2.2-34.9,8.1-78.9,40.8-97.6
					c19.9-11.4,10.7-5.6,27.4-13.2c37-17.1,99.5-8.5,123.7,24.2c33.3,2.7,37.3,50,49.7,88.1c7.4,22.6,32.1,90.8-3.2,100
					c-12,3.1-29.8-3.1-39.7,6.2c-16.9,15.7-0.2,34.7-5.7,52c-5,15.8-24.7,12.4-29.5,26.5c-3.7,10.7,8.1,31.3,12.2,40.5
					c-3-0.5-7.2,1.1-10.2,0.6c-0.3,8.9,7.3,15.1,10.2,22.5c-2.9-0.6-7.2,1-10.2,0.6c-1.8,10.8,7.2,18.1,10.3,27.9
					c-3.2-1.3-8.3-0.8-12-2.6c9.8,4.7,16.6,28.6,17.8,38.4c2.7,21.9,5.6,54.2,4.4,76.4c-4.1-2.8-8.2-9.7-13-10.6
					C982.1,557.1,981.7,551.8,982.1,557.6"/>
			</g>
			<g id="path504">
				<path class="st1" d="M375.4,489.4c1.7-1.2,3.4-2.5,5.1-3.7c6.1,13-30.8,50-41.5,57.7c-14.4,10.4-41.9,34.6-60.4,34.2
					c2.3-23.2-9.5-18.5-23.3-8.7c-14.9,10.6-31.5,22-45.9,33.6c0.8-3.5-9.7-12.3-9.2-15.8c-0.2,1.4-23.1,3.5-56.9,14.2
					c-7.6-22.2,31.4-43.9,45.3-50.8c0.9,2.8,1.7,6.7,1.1,9.7c17.9-3.2,32.1-25.7,44.5-38.2c3.1,5.2,5.5,10.9,7,16.8
					c29,1.8,35.5-37.5,63.5-35c0.4,8.8-1.2,18.2,2.3,26.2c12.1-2.1,17.3-18.6,27.9-25.8c-0.6,5.8,2.6,7.7,3.8,12.1
					C352.3,509.2,363.4,498.5,375.4,489.4"/>
			</g>
			<g id="path506">
				<path class="st1" d="M991,509.2c1.2,16.3,1.4,30.2,0.2,32.5c-12.6-11.9-21.5-34.4-37.9-41.8c-6.6,7.9-8.2,22-17.3,26.3
					c-9.9-8.5-10-22.7-16.7-33.1c-3.8,2.1-45,28.8-41.2,31.1c-22.2-13.3-28.9-29.7-27.9-55.6c-7.4,1.1-16,2.5-23.7,1.3
					c-0.2-9.2,6.6-24,5.4-31.5c-2.9-17.8-16.4-16.1-30.3-24.3c13.4-6.8,25.3-16.5,32.3-31.9c-7.7-4.6-19.9-1.5-22.5-10.9
					c20,2.4,39.7-6.4,58.3-10.9c29.7-7.1,57.6-9,87.2-18c11.8-3.5-0.9-23.8,9.7-13.3c12.6,12.5,9.8,57.5,24,72.9
					c-0.4-1.2-15.9-3.2-17.7-3.3c2.6,10,10.2,17,14.3,25.9c4.6,10.1,4.6,17.6,7,28.4c-4.9-2.7-9.1-1-14-3.4
					c-1.2,9.2,7.3,16.1,9.3,24.7C992.2,484.8,990.4,498.3,991,509.2"/>
			</g>
			<g id="path508">
				<path class="st1" d="M789.6,788.1c-15.1,0-21.3,29.3-27.7,45.6c-6.8,17.5-6.2,74.6-23.2,81.5c1.3-12.4-3.8-29.8-6-42.2
					c-10.1,3.3-14.5,18.8-24.3,25.1c-3.8-12.2-1.6-24.5-9.1-35.8c-12.2,0.8-15.3,12.7-19.3,22.5c-1.9-29,0.8-58.2-4.4-87.1
					c-1.6-8.8-4.1-29.9-14.5-33.7c-2.5-0.9-39,13.4-39,12.5c1.2-20.2-12.6-11.5-25.6-11.3c0.5-2.5,0.1-5-1.3-7.2
					c-18.4-1.8-23.1,13.1-38.4,18.6c-0.6-30.4-8.5-48.9-39.9-59c0,7.4-4.4,13.8-3.8,21.4c-0.2-3.2-14.3-22.7-17.1-25.4
					c-11.1-10.6-7.1-9.5-13.8,2.1c-7.8,13.6-10.2,33.2-15.3,48.1c-4.8,13.9-13.4,39.2-26.8,46.6c1.2-14-1.5-32.2-7.9-44.6
					c-15.8,11-22.6,35.4-39.4,44.6c-0.6-11.4-0.1-23.4-0.8-34.7c-5.8,8.9-14.1,16.8-25.3,15.5c0.1-4.8-1.7-11.4-0.8-16
					c-16.5,17.6-26.5,50.2-55.7,56.4c13.2-14.4,22.7-51.4,28.1-70.5c7.8-27.5,9-56.6,11.9-84.9c1.9-19-1.5-36.1-2.4-55.5
					c-0.8-17.2,0.6-34.5,4.2-51.4c2.5-12.2,2.5-32.8,11.2-42.1c1.5,26-5.9,57.6,2.4,82.4c4.7-1.5,10.6-0.1,15.4-3.2
					c-3.8,2.4-1.5,34.9-1.3,38.9c17.3-6.6,28.9-29.6,45.6-37c1.4,15.8,1.5,31.6,2.4,47.5c9.8-10.1,17.5-27,27.8-38.6
					c14-15.7,31.7-18,49.6-26.6c-1.9,0.9,0.9,26.5,1.4,29.2c6.4-1.2,12.6-3.6,18.2-7c-17,10.3,29.2,38.1,35,39.6
					c22,5.6,41.4-8.6,55.6-26.1c0.9,15.6,2.6,31.8,2.3,47.4c17.1-0.8,18.4-28.6,32.2-29.7c9.6-0.7,12.3,16.9,15.8,24.3
					c12.9-0.1,11.6-20.2,21.5-27.9c8.8,7.3,21.4,32.2,31.9,28.4c13.6-5,17-34.5,22.1-46.4c6.5-15.2,13.8-41,31-47.3
					c3.9,9.8-0.2,22.3,3.7,33c12.3-3.5,17.3-21.9,29.5-24.4c-5.4,1.1,13.6,73.3,15.8,81c6-4.9,10.5-11.3,16-17.2
					c5,15.4,7.9,28.5,17.1,40.5c1-2.8,5.8-8.3,7-12c6.9,4.6,11.2,14.8,16.6,21.5c16-11.7,13.3-32.6,23.1-47.7
					c4.4,10.3,8.5,23.2,14.3,30.5c7.2-10.6,8.7-24.5,11.8-35.3c-2.1,7.3,5,26.4,7,33.7c5.8-4.7,39.4-55.6,29.6-61.9
					c25.9,16.8,15.4,81.4,7.2,105.1c-5.8,16.7-16.7,38-21.3,55.1c-13.3,48.9-20.4,89.4-29,139.6c1-12.1-4-23.4-7.5-34.7
					c-5.9,5.7-10.2,13.3-15.8,18.7c-2.9-13.7-7.4-28.5-17-39.1c-8.1,9.8-9.1,26.5-12.3,39c-5-6.9-7.5-17.9-14.3-25.4
					c-2.3,3.1-8.7,8.8-8.9,9.4c0-29.7,23.2-89.2-16-90.7c-7.5-0.3-14.5-3.2-20.6-7.4c-0.7,2.5-4.2,6-4.8,8.8
					C798.3,790.3,793.7,788.2,789.6,788.1"/>
			</g>
			<g id="path510">
				<path class="st3" d="M882.5,75.3c-0.5,0.2-1.1,0.5-1.7,0.8c-8.7,4.7-7.2,11.7-20.1,7.4c-2.1-0.7-15.4-4.9-11.5-9
					c19.2-19.8,70.6-24.2,85.5-22.7c10.9,1.2,28.4,5.8,38.2,11.3c7.8,4.4,13.1,6.5,19.5,12.6c6.8,6.5,14.4,9.1,22.2,14
					c10.3,6.6,18.3,12,17.3,25.7c-7.9-2.2-10.5-11.8-16.1-16.9c-1.7-1.5-5.5-4.9-8.1-4.6c-1.9,0.3-5.5,4.8-3.4,6.7
					c-3.2-2.7-20.1-13.8-20.6-17.1c0.4,2.4-0.8,5.6-0.4,8c-17-4.2-19.2-35.5-37.7-14c-8.2-7.4-19.1-21.8-19.2-0.3
					c-10.1-4.5-21.6-16.3-23.4,1.2C894.7,74.9,890.3,71.8,882.5,75.3"/>
			</g>
			<g id="path512">
				<path class="st3" d="M716.8,425.7c0.2,5.7,1.6,11.3,4.1,16.5c-5.6-4.5-15.4-15.7-23.4-13.3c-11.9,3.5-10.4,35.9-10.9,45.5
					c-7-13.3-0.3-39.4-18.8-36.9c-17.4,2.4-34.5,39.2-42.7,52.5c-2.5-9.3-3.7-20.3-7.7-28.6c-10.2,7-29.8,50-17.8,59.6
					c-7.5-6-11.7-14-17.4-21.9c-11.2-15.3-8.6-13.7-22.8-4.8c-0.5-6.3-0.1-12.9-0.6-19.2c-10.4,8.8-13.5,31.7-26.1,37
					c-1.1-20.5,1-41.5-0.6-61.9c-4.4,2.6-31.5,45.1-30.5,47.2c-7.4-15.2-4.2-32.8-9.9-48.4c-6.3,3.4-13.5,5-19.8,8.1
					c-0.2-8.4,5.9-15.1,6.8-23.6c-0.6,6-30.1,21-34.9,25.8c-11.1,11.1-18.2,26.5-29.9,36.9c-5.7-14.3-3.6-30.5-11.3-44.1
					c-13.6,4.6-27.1,13.6-40.2,15.7c-0.3-4.6-3.1-9-2.5-14c-17.3,6-26.8,20-42,29.5c-0.1-6.1-0.1-12.6-0.6-18.7
					c-18.9,6.5-32.5,27.3-49.1,38.7c-0.2-10.5,2.8-21.6,6.6-31.5c-29.7,4.5-58.7,12.8-86.2,24.8c38.5-16.8,73.1-31,113.1-44.6
					c24.1-8.2,54.8-8.9,79.9-12.4c39.2-5.5,73.5-17.3,113.1-18.9c51.1-2,106.5,3.7,155-14c14.5-5.2,29.9-10.6,43.7-16.6
					c14.6-6.4,30.8-33.6,44.8-33.2C733,378.6,715.8,402.1,716.8,425.7"/>
			</g>
			<g id="path514">
				<path class="st4" d="M785.7,315.2c-4-6.4-7.4-14-6.5-20.4c1.5-11.6,13.2-22.9,17.2-34.8c8-23.9,12.7-47.7,22.2-71.2
					c6.9-17.2,10.2-77.8,38.8-74.2c2.2,0.3-7.4,79.2-7.4,88.6c0,20.5,1.7,38.2,4.1,58.6c1.9,15.2,5,29.6,4,45.4
					c-3.3-0.8-7.5-1.2-10.3-3.2c-1.2,6.6,1.8,12.2,2,18.6c-7.9-2.2-19.8-11-28-6.6c-4.8,2.6-7.2,13.6-8.8,18.5
					c-8.5,0.2-12.2-13-16.4-19c-2,2.9-4.3,4.1-5,8.1C789.4,320.8,787.4,318,785.7,315.2"/>
			</g>
			<g id="path516">
				<path class="st4" d="M353.6,521c1.7,1,2.7,3.2,2.2,7.2c-7.7,10.8-37.1,33.1-47.8,39.5c-7.9,4.7-20.5,10.8-28.2,12.1
					c-5.6-3.6,0-18-5.4-21.6c-5.9,4-11.5,8.4-16.7,13.3c-2.3,2.3-47.4,32.7-47,27.8c0.6-6.2-5.2-4-7.9-9.5
					c-7.4-0.3-11.6-0.3-19.9,2.4c19.1-6.3,23.6-27.1,39.9-33.6c-0.7,6.6,0.9,13.5,5.6,18.6c-7.8-8.5,50.8-41.2,56.5-43.6
					c1.3,7,3.9,13.7,6,20.9c4.6-1.3,9.9-2.9,14-7.1c13,13.9,21.7-12.2,29.7-19.3C339.9,523.5,349.2,518.5,353.6,521"/>
			</g>
			<g id="path518">
				<path class="st4" d="M825.6,800.9c-1.7-1.7-15.2-16.1-17.1-13.5c-5.8,8.1-16,1.2-22.7-5.6c9.5-19,14.3-29.6,26-43.6
					c-0.5,8.6,0.5,17.8,1.5,26.2c13.4-7.6,21.9-21.6,34.2-30.9c-2,7.9-4,17.1-2.4,25.4c5.7-9.7,11.5-22.5,20-31.4
					c0.9,2.6,3.7,5,4.6,8.4c-1.4-5.8,35.1-20,41.8-20.1c-3.7,0-22.5,27.8-26.8,31.2c-5.5,4.4-17.2,5.2-21.4,8.9
					c-8.8,7.6-6.1,22.2-13.6,30S830.3,790.1,825.6,800.9"/>
			</g>
			<g id="path520">
				<path class="st4" d="M657.6,752.6c-2.3,14.6-35.3,25.2-35.2,24c1.2-20.2-12.6-11.5-25.6-11.3c0.5-2.5,0.1-5-1.3-7.2
					c-18.4-1.8-23.1,13.1-38.4,18.6c-10-29-27-42.3-39.8-59c4.1,2.6-6.1,19.7-7.9,21.6c-7.7-10.6-7.7-20-17.2-31.5
					c4.8-14.3,11.6-28.5,29.2-26.5c-1.7,7.4-2.7,14.9-2.9,22.5c4.7-2.8,11-6.7,17.2-6.6c-0.6,8.6,0.7,17.4,5.4,24.4
					c8.8-3.4,14.8-12.1,22.6-16.8c0.1,11.7,6,20.5,13,29.7c9-9.1,17.3-19.7,24.9-29.8c-0.9,1.2,17.9,37.9,20.2,41
					c11.3-9.4,13-20.9,14.2-34.9C647.5,720.4,660,736.5,657.6,752.6"/>
			</g>
			<g id="path522">
				<path class="st1" d="M954.1,411.5c-3.7,4-5.8,7.6-4.5,9.3c-8.4-11.5-11.7-26.5-20.6-36.5c-9.9,4.4-19.8,14-31.5,12.7
					c0.7-5.1-1.5-11.5-0.6-16.5c-10.7,9.2-20,6.5-33.2,5.1c7.5-5.1,15.1-8,22.8-14.2c14.5-11.8,18.7-16,36.9-19.8
					c10.4-2.1,24.6,4.4,34.9,1.2c11.8-3.6-2.2-34.3,8.4-23.8c12.6,12.5,9.8,57.5,24,72.9C986.3,387.6,964.1,400.8,954.1,411.5"/>
			</g>
			<g id="path524">
				<path class="st5" d="M1045.1,272.5c-23.8-5.7-17-34.3-17-50.5c0-26.7,7.4-54.1-5.2-79.2c-6.7-13.4-18.5-22.4-15.1-39
					c7.2,18.4,36.7,61.1,33.4,73c0.9-3.2,4.9-8.9,5.6-12.7c4.5,19,45.2,113.7,0.2,108.7C1046.4,272.8,1045.8,272.7,1045.1,272.5"/>
			</g>
			<g id="path526">
				<path class="st2" d="M739.9,1150.2c-20.5,0-48.2-7.4-57.2-19.4c-18.1-24.2-18.4-38.9-18.7-59.4c0-10-0.6-19.9-1.7-29.8
					c-3.7-31.3,1.7-77.2,6.5-117.8c2.7-22.8,5.2-44.4,6-61.5c1-22.8,1-49.7-6.1-75.4c-0.9-3.3-1.6-6.3-2.3-9.2
					c-1.4-6-2.6-11.3-5.5-17.4c-4.4,3-9,5.7-13.7,8.6c-7.3,4.4-14.9,9-23.4,15.1c-1,0.7-2.4,0.5-3.1-0.5c-0.4-0.5-0.5-1.1-0.4-1.7
					c0.4-2.6,0-5.9-0.5-9.2c-0.3-2.2-0.6-4.4-0.7-6.6c-7.6,2.5-14.9,6-21.6,10.4c-1,0.7-2.4,0.4-3.1-0.6c-0.3-0.5-0.4-1.1-0.3-1.7
					c0-1.5-0.1-3.1-0.3-4.6c-0.4-3.4-0.6-6.8-0.5-10.2c-15.4-1.3-25.5,4.1-34.3,18.3c-0.6,1.1-2,1.4-3.1,0.7
					c-0.4-0.3-0.7-0.6-0.9-1.1c-10.2-25.9-19.3-35.9-29.9-47.5c-2-2.2-4.1-4.5-6.2-7c-0.4,1.8-0.9,3.5-1.4,5.2
					c-1.1,3.6-2.1,7.1-1.8,10.7c0.1,1.2-0.9,2.3-2.1,2.4c-0.5,0-1-0.1-1.4-0.4c-9.4-6.2-16-17.2-21.2-27.9
					c-5.7,10-11,25.4-16.3,40.4c-5.3,15.3-10.4,29.8-15.8,38.9c-1.5,2.6-3,5.2-4.5,7.8c-12.8,22-24.9,42.9-44.2,59.6
					c-28.4,24.6-45.8,56-50.4,91c-1.2,9.4-2.6,17.5-3.9,25.2c-3.6,21.9-6.5,39.2-3.2,66.6c1.1,9.1,5.7,18.3,10.2,27.2
					c7.8,15.6,15.9,31.6-1.3,41.8c-12.6,7.4-32.8,10.3-52.6,7.4c-17-2.5-39.1-11.9-45.4-19.3c-9.7-11.2-5-35.3,1-57.4
					c6.2-23.3,10.6-47.7,11.3-63.5c0.6-17.7,2.2-35.3,4.6-52.8c1.1-8.4,2.4-18,3.9-32.6c3.5-33.4,12.4-47,23.6-64.1
					c7.2-10.6,13.6-21.7,19.2-33.2c11.6-23.9,14.5-50.2,17.6-78.1c0.6-5.8,1.3-11.8,2.1-17.9c2.8-22.7,1.8-42.3,0.7-61.4
					c-0.8-14-1.5-28.4-0.7-43.7l0.1-1.2c0.7-13.2,2.1-38.4,14-68.8c-4.2,5.8-9,11.1-14.4,15.8c-1.6,1.3-3.1,2.7-4.7,4
					c-8,6.9-16.3,14-25.4,19.5c-2.5,1.5-4.7,2.9-6.8,4.2c-9.3,6.2-19.4,11.2-30,14.8c-1.2,0.4-2.4-0.2-2.9-1.3c0-0.1,0-0.1,0-0.2
					c-2.2-7.7-2.3-15.3-2.2-23.2c-1.8,1.6-3.6,3.3-5.5,5c-17.4,15.8-37.1,33.6-59,39c-0.7,0.2-1.5,0-2-0.5c-0.6-0.5-0.8-1.3-0.7-2
					c0.3-2.8-0.3-4.8-1.9-6.2c-7.8-6.7-36.4,1.3-51.7,5.6c-4.4,1.3-8.8,2.5-13.3,3.3c-0.7,0.1-1.4-0.1-1.9-0.6
					c-0.5-0.5-0.7-1.2-0.7-1.9c0.5-3.7,1.4-7.4,2.5-11c1.1-3.6,1.9-7.3,2.4-11.1c-11.1-0.5-23.4-0.5-37.6,0.1
					c-1.2,0-2.3-0.9-2.3-2.2c0-0.2,0-0.4,0.1-0.7c4.6-17.5,16.6-35.1,34.7-50.9c15.6-13.4,32.8-24.9,51.2-34.2
					c21.8-11.3,37.1-16.2,53.2-21.4c9.4-3,19.1-6.2,30.5-10.7c31.4-12.5,103.6-20.9,125-23.2c12.5-1.4,26.9-4,42.1-6.9
					c28.6-5.3,61-11.4,98.4-12.7l8.2-0.3c46.7-1.6,95-3.2,134.7-24.3c35.8-19,95.6-68.2,103.7-119.2c1.6-10.2,6.1-16,10-21.2
					c4.2-5.5,7.8-10.2,7.4-19.5c-0.6-13.5,1.2-21.9,3-30c1.8-8.4,3.5-16.4,2.7-29.6c-1.2-19.7,1.2-39.8,6.9-56.7
					c7-20.7,18.7-36.2,34-44.9c18.5-10.6,34.4-16.1,54.7-18.7c41.6-5.5,88.5,9.4,99.8,31.4c29.9,3.9,38.9,42.6,45.5,71
					c1.7,7.2,3.3,14.1,5,19.4c0.6,1.9,1.3,3.9,1.9,6c7.6,23,19,57.7,6.6,80.8c-5.2,9.7-10.3,15.2-16,17.3c-5.2,1.9-10,0.6-14.7-0.6
					c-6.8-1.8-13.1-3.5-21.4,4.2c-10.5,9.8-10.3,19.7-10.1,31.2c0.2,9,0.4,18.3-4.6,28.4c-9.9,19.7-18.4,36.7-2.5,60.5
					c0.7,1,0.4,2.4-0.6,3.1c-0.4,0.2-0.8,0.4-1.2,0.4c-0.9,0-6.7-1.9-11.3-3.5c9,17.5,18.3,40.8,18.3,55.7c0,1.2-1,2.2-2.3,2.2
					c-0.6,0-1.2-0.2-1.6-0.6c-2.3-2.5-5-4.5-8-5.9c11,25.7,13.7,96.9,13,113.4c-0.1,1.2-1.1,2.2-2.3,2.1c-0.6,0-1.1-0.3-1.5-0.7
					c-1.9-2.1-3.6-4.4-5.1-6.8c-1.1-1.7-2.3-3.4-3.5-5c0.4,3.6,0.8,7.1,1.2,10.5c1.9,16.3,3.4,29.3,1.4,40.4c-0.2,1.2-1.4,2-2.6,1.8
					c-0.6-0.1-1.2-0.5-1.5-1c-0.5-1-1-1.9-1.4-2.9c-1.3-3.2-2.9-6.4-4.8-9.4c5.5,27.7,6.7,57.4,5.4,75.8c-2.4,31.8-8.6,46.8-18,69.5
					c-2.6,6.3-5.6,13.5-8.8,21.8c-10.7,28-13,43.9-17.2,72.8l-0.4,2.6c-2.2,14.8-5.6,34.3-9.3,54.9c-8.5,48-19.2,107.7-19.2,143.7
					c0,9.3,4.9,22,13.9,35.8c1.3,2,2.6,4,3.9,6c9.3,14.1,17.3,26.3,19.2,40.4c1.6,12.3,0.7,18.9-2.9,23c-4.7,5.3-13.1,5.3-27.1,5.2
					c-2,0-4.1,0-6.4,0c-3.4,0-6.9,0.1-10.6,0.2c-17.3,0.5-35.3,1.1-47.7-9.2c-18-15-23.6-66.9-23.6-84.2c0-26.9,2.7-42.1,5.5-58.3
					c3.1-16.5,5.1-33.1,5.9-49.8c0.6-12.3,0.9-24.8,1.3-36.9c0.4-14,0.8-28.5,1.6-42.8c0.4-7.3,1.2-14.8,1.9-22
					c1-10.2,2.1-20.8,2.1-31.1c0-1.1,0-2.1,0-3c0.1-7.3,0.2-11.3-6.5-15.3c-2.1-1.2-4.7-1.5-7-0.8c-2.2,0.6-4.2,1.8-5.9,3.5
					c0,0.3,0,0.6-0.1,0.9c-0.4,1.2-1.7,1.8-2.8,1.4c0,0,0,0,0,0c-6.2-2.2-11.9-5.4-17.1-9.5c0,3.4,0.4,6.9,1.2,10.2
					c0.3,1.2-0.4,2.4-1.6,2.7c-0.6,0.2-1.3,0-1.8-0.3c-7.1-4.7-13.4-10.4-18.7-17.1c-12.5,25.1-23,63.7-30.3,112.3
					c-1.6,10.8-3.5,21.6-5.4,33.1c-5.7,33.4-11.6,68-11.6,100.2c0,27.5,3.9,31.4,22.6,50.1l2.3,2.3c1,1,2,1.9,2.9,2.9
					c12.8,12.6,21.2,20.9,17.6,50.2c0,0.1-0.1,0.3-0.1,0.4C782.7,1146.1,769.3,1150.2,739.9,1150.2z M661.8,754.9
					c0.2,0,0.3,0,0.5,0.1c0.6,0.2,1.1,0.6,1.5,1.1c4.1,7.6,5.5,13.7,7.1,20.7c0.7,2.8,1.3,5.7,2.2,9c7.3,26.4,7.2,53.6,6.2,76.8
					c-0.8,17.2-3.3,38.9-6,61.8c-4.7,40.3-10.1,86-6.5,116.7c1.1,10.1,1.7,20.2,1.7,30.3c0.3,20.3,0.5,33.7,17.8,56.7
					c7.9,10.5,34.1,17.6,53.6,17.6c26.5,0,39.1-3.3,41.9-11.1c3.3-26.8-4.1-34.1-16.4-46.2c-1-0.9-1.9-1.9-2.9-2.9l-2.3-2.3
					c-18.8-18.8-23.9-23.9-23.9-53.2c0-32.5,5.9-67.3,11.7-100.9c2-11.5,3.8-22.3,5.4-33c7.8-51.9,18.7-91.2,32.4-116.9
					c0.4-0.7,1.1-1.2,1.9-1.2c0.8,0,1.6,0.3,2,1c4.2,6,9.4,11.2,15.2,15.7c-0.5-3.6-0.5-7.2,0-10.7c0.2-1.2,1.3-2.1,2.5-1.9
					c0.5,0.1,0.9,0.3,1.3,0.6c4.9,4.6,10.6,8.3,16.8,10.8c1-1.1,2.1-2.1,3.3-2.8c2.5-1.6,8.9-4.9,15.3-1c8.9,5.3,8.8,11.4,8.7,19.2
					c0,1,0,1.9,0,3c0,10.5-1.1,21.2-2.2,31.6c-0.7,7.2-1.5,14.6-1.9,21.8c-0.8,14.2-1.2,28.7-1.6,42.7c-0.3,12.1-0.7,24.7-1.3,37
					c-1,22.5-3.5,36.7-5.9,50.4c-2.8,16-5.4,31-5.4,57.5c0,16,5.4,66.9,21.9,80.7c11.1,9.2,28.2,8.7,44.7,8.2
					c3.6-0.1,7.2-0.2,10.7-0.2c2.3,0,4.4,0,6.4,0c12.2,0.1,20.3,0.2,23.7-3.7c2.6-2.9,3.1-8.9,1.8-19.5
					c-1.7-13.1-9.5-24.9-18.5-38.5c-1.3-2-2.6-4-3.9-6c-6.7-10.2-14.6-25.2-14.6-38.2c0-36.3,10.7-96.3,19.3-144.4
					c3.7-20.6,7.1-40,9.2-54.8l0.4-2.6c4.1-28.3,6.5-45.3,17.5-73.8c3.2-8.3,6.2-15.5,8.8-21.9c9.2-22.3,15.4-37,17.7-68.1
					c1.5-20-0.1-53.3-7-82.8c-0.3-1.2,0.5-2.4,1.7-2.7c0.6-0.2,1.3,0,1.9,0.4c4.2,3.2,7.3,8.2,9.4,12.4c0.3-8.8-0.8-19-2.3-31.2
					c-0.6-5.1-1.2-10.3-1.8-16c-0.1-0.8,0.3-1.5,0.9-2c0.7-0.5,1.5-0.5,2.2-0.2c3.9,1.8,6.6,5.8,9.1,9.7l0.8,1.2
					c-0.1-25.3-3.8-93.1-15.1-109.5c-0.7-1-0.4-2.4,0.6-3.1c0.6-0.4,1.4-0.5,2.1-0.2c0.6,0.2,1.2,0.4,1.8,0.6c3.3,0.9,6.3,2.4,9,4.5
					c-1.8-13.3-9.4-33.8-20.1-53.4c-0.6-1.1-0.2-2.4,0.9-3c0.7-0.4,1.5-0.4,2.2,0c0.9,0.4,5.9,2.1,9.9,3.5c-13-23.4-4.1-41.2,5.3-60
					c4.5-9.1,4.3-17.8,4.1-26.2c-0.3-11.5-0.5-23.4,11.5-34.5c10.1-9.4,18.3-7.2,25.6-5.2c8.7,2.3,15.6,4.2,25.6-14.4
					c11.5-21.4,0.5-55-6.8-77.3c-0.7-2.1-1.4-4.1-2-6c-1.8-5.5-3.4-12.4-5.1-19.8c-6.8-29-15.2-65-42.8-67.7
					c-0.8-0.1-1.5-0.6-1.8-1.3C995,76,982,67.1,963.9,61.2c-19.5-6.1-40-7.9-60.2-5.4c-19.6,2.6-35.1,7.9-53.2,18.2
					c-20,11.4-42,43.8-38.7,97.4c0.9,13.9-1,22.5-2.8,30.8c-1.7,7.9-3.5,16-2.9,28.9c0.5,10.9-4,16.8-8.3,22.4
					c-3.8,4.9-7.7,10-9.1,19.1c-4.8,30.4-26.6,57.8-44,75.4c-21.7,21.9-46.2,38.7-62,47c-40.6,21.6-89.4,23.2-136.6,24.8l-8.2,0.3
					c-37,1.3-69.3,7.3-97.7,12.6c-15.3,2.9-29.8,5.6-42.4,6.9c-15.1,1.6-92.1,10.3-123.8,22.9c-11.5,4.6-21.3,7.7-30.8,10.8
					c-16,5.1-31.1,10-52.5,21.1c-18,9.1-34.9,20.4-50.3,33.6c-16.4,14.3-27.6,30.1-32.5,45.7c14-0.5,26.2-0.4,37.1,0.2
					c1.2,0.1,2.1,1.1,2.1,2.3c-0.1,5.1-1.4,9.8-2.7,14.4c-0.7,2.5-1.4,4.8-1.8,7.2c2.6-0.6,6-1.6,9.7-2.6c24.4-6.8,47-12.3,55.9-4.7
					c2,1.7,3.3,4.2,3.5,6.9c19.7-6,38-22.5,54.2-37.2c3.3-3,6.4-5.8,9.4-8.4c0.9-0.8,2.3-0.7,3.2,0.2c0.4,0.4,0.6,1,0.5,1.5v2.5
					c-0.1,7.7-0.3,15,1.4,22.2c9.5-3.4,18.5-8,26.9-13.6c2.2-1.4,4.4-2.8,6.9-4.3c8.8-5.2,16.9-12.2,24.8-19c1.6-1.4,3.2-2.7,4.7-4
					c11.1-9.4,19.4-22.9,27.4-36c5.1-8.3,10.3-16.9,16.2-24.3c0.7-1,2.2-1.2,3.1-0.4c1,0.7,1.2,2.2,0.4,3.1
					c-35.8,49.6-38.3,94.8-39.3,114.2l-0.1,1.2c-0.8,15-0.1,28.7,0.7,43.2c1,19.2,2.1,39.1-0.7,62.2c-0.8,6-1.4,12-2.1,17.8
					c-3.1,28.2-6.1,54.9-18,79.5c-5.7,11.7-12.3,23-19.6,33.8c-11.3,17.3-19.5,29.8-22.9,62.2c-1.5,14.6-2.8,24.2-3.9,32.7
					c-2,15.4-3.4,25.7-4.6,52.5c-0.7,16.1-5.1,40.8-11.4,64.4c-5.3,19.7-10.3,43.6-1.9,53.3c5.7,6.6,26.8,15.4,42.7,17.8
					c18.6,2.7,38.1,0,49.7-6.8c12.9-7.6,8.3-18.6-0.4-35.9c-4.6-9.2-9.5-18.8-10.6-28.7c-3.3-28.1-0.4-45.7,3.3-67.9
					c1.3-7.7,2.6-15.7,3.8-25.1c4.8-36,22.7-68.5,51.9-93.8c18.7-16.3,30.7-36.8,43.2-58.5c1.5-2.6,3-5.2,4.6-7.8
					c5.1-8.7,10.1-23,15.4-38.1c6-17.1,12.1-34.8,18.9-44.8c0.7-1,2.1-1.3,3.1-0.6c0.3,0.2,0.6,0.5,0.8,0.9
					c4.3,9.2,10.1,20.3,18,27.2c0.4-2.6,1-5.2,1.8-7.7c1-3,1.6-6.1,1.8-9.3c0-0.9,0.6-1.8,1.5-2.1c0.9-0.3,1.9-0.1,2.5,0.7
					c3.3,4,6.4,7.4,9.5,10.7c10.3,11.3,19.3,21.2,29.2,45c9.7-13.7,21.5-18.7,38.6-16.6c1.2,0.2,2.1,1.3,1.9,2.5c0,0.1,0,0.1,0,0.2
					c-0.6,2.4-0.2,7.5,0.2,11.2c0,0.5,0.1,1,0.1,1.5c7.1-4.2,14.6-7.5,22.6-9.7c1.2-0.3,2.4,0.4,2.7,1.6c0.1,0.3,0.1,0.6,0.1,0.9
					c-0.2,2.9,0,5.8,0.5,8.7c0.3,1.9,0.5,3.8,0.6,5.7c7.2-5,13.7-8.9,20-12.7c5.5-3.3,10.7-6.4,15.6-9.9
					C660.8,755,661.3,754.9,661.8,754.9z M975.9,394.8l0.1,0.1L975.9,394.8z"/>
			</g>
			<g id="path528">
				<path class="st0" d="M839.4,192.9c-0.8,29.1,5.9,58.2,3.3,87.3c-0.8,9.3-2.6,13.6-8.3,20c-1.9,2.1-19.1,12.1-19,12
					c0.5-5.3-1.7-7.9-3.3-12.6c-4.7,3.1-8.5,7.4-11,12.5c-2-1.5-18.2-17.3-17-19.8c-1.6,3.2-8,8.5-7.1,14.2
					c-8.3-0.6-14.6-14.3-21.1-16.9c0.1,3.8-1,8.3-0.2,12.2c-11.3-16.8-25.9-29.4-27.9-50.8c-1.4-15,3.9-31.8,8-46
					c9.6-32.1,24.1-62.5,42.8-90.2c15.7-22.8,61.6-60.3,92.3-34.1c6.6,5.7-12.7,29.4-18.8,41.2C841.8,141.9,840,170.8,839.4,192.9"
					/>
			</g>
			<g id="path530">
				<path class="st3" d="M849.1,102.2c-8.7,7.4-15,14.7-13.2,17.8c-1.8-3-4.9-6.1-6.3-8.5c-6.5,7.9-12.3,18.6-19.5,22.8
					c-0.7-10.9-0.3-22.3-0.9-33.3c-9.5,1.5-13.5-1.8-21.2,5c25.2-30.8,75-51.2,93.9-17.1C880.2,83,863,90.3,849.1,102.2"/>
			</g>
			<g id="path532-9">
				<path class="st5" d="M837.4,200.7c2,35.2,5.9,73.1,5.3,79.5c-0.8,9.3-2.6,13.6-8.3,20c-1.8,2.1-19.1,12.1-19,12
					c0.5-5.3-1.7-7.9-3.3-12.6c-4.7,3.1-8.5,7.4-11,12.5c-2-1.5-12.8-16.6-11.6-19.1c-1.6,3.3-8,14.4-7.1,20.1
					c-8.3-0.6-20-20.9-26.5-23.5c0.1,3.8-1,8.3-0.2,12.2c-11.2-16.8-25.9-29.4-27.8-50.8c-1.4-15,3.9-31.8,8-46.1
					c6.2-21.3,17.8-44.8,30-66c1.1,9.7,0.8,19.6,1.6,29.4c2.5-3.2,8-6.1,10.9-10.1c0.1,6.2,3.1,9.5,3.2,15.7c2.3-2,10.1-4.3,13-7.7
					c1.5,10.3,6.2,21.4,17.3,21.8c4.9-14.8,14.2-24.8,28.5-38.9C840.3,161.5,835.9,176,837.4,200.7"/>
			</g>
			<g id="path534">
				<path class="st2" d="M781.1,315.4H781c-5.7-0.4-11.4-7.4-16.9-14.2c-2-2.5-4-4.9-6.2-7.2l0,0.5c-0.3,2.3-0.3,4.6,0,6.9
					c0.3,1.2-0.5,2.4-1.7,2.7c-0.9,0.2-1.8-0.2-2.3-1c-2.9-4.3-6-8.4-9-12.4c-9.1-11.9-17.6-23-19.2-39.5
					c-1.3-14.6,3.3-30.4,7.4-44.3l0.7-2.6c6.4-22.1,20.7-63.3,43.9-91.6c11.8-14.4,43.1-47.5,77.5-44.9c1.2,0,2.2,1,2.2,2.3
					c0,1.2-1,2.2-2.3,2.2c-0.1,0-0.2,0-0.3,0c-10.8-0.8-39.5,1.8-73.7,43.3c-22.8,27.7-36.8,68.2-43.1,90l-0.8,2.6
					c-4,13.6-8.5,28.9-7.2,42.6c1.4,15.2,9.6,25.9,18.2,37.2c1.7,2.1,3.3,4.4,5,6.6c0-0.2,0-0.4,0-0.5c0.2-1.4,0.2-2.9,0.2-4.4
					c0-0.8,0.4-1.5,1-1.9c0.6-0.4,1.4-0.5,2.1-0.2c3.3,1.3,6.8,5.7,10.9,10.8c3.8,4.7,8.3,10.3,11.9,12c1.8-6.3,4-12.4,6.8-18.4
					c0.5-1.1,1.9-1.6,3-1c0.6,0.3,1.1,0.9,1.2,1.6c1.8,11.3,6.6,14.6,9.7,16.3c2.6-4.6,6.3-8.4,10.7-11.3c0.6-0.4,1.3-0.4,1.9-0.2
					c0.6,0.2,1.1,0.7,1.4,1.4c0.4,1.2,0.9,2.3,1.3,3.3c1,2,1.6,4,2,6.2c5-2.9,14-8.4,15.2-9.7c5.4-6.1,7-9.9,7.8-18.8
					c1.5-16,0-32.3-1.4-48.1c-1.1-12.8-2.3-26-1.9-39.1c0.7-25.6,8.8-83,29.4-97c1-0.7,2.4-0.4,3.1,0.6c0.7,1,0.4,2.4-0.6,3.1l0,0
					c-17.3,11.8-26.6,62.7-27.5,93.4c-0.3,12.8,0.8,25.9,1.9,38.6c1.4,16,2.9,32.5,1.4,48.9c-0.9,9.7-2.9,14.5-8.9,21.3
					c-0.4,0.4-1.4,1.6-10.7,7.2c-9.7,5.9-9.7,5.9-10.9,5.3c-0.9-0.4-1.4-1.3-1.3-2.3c0.3-3.2-0.5-5.2-1.7-8l-0.4-0.9
					c-3.3,2.7-6.1,6.1-8,10c-0.5,1.1-1.9,1.6-3,1c-0.1-0.1-0.2-0.1-0.3-0.2c-0.2-0.1-0.6-0.3-1-0.5c-2.6-1.4-8-4.2-11.1-13.2
					c-1.8,4.4-3.2,8.9-4.3,13.5C783.1,314.7,782.2,315.4,781.1,315.4z"/>
			</g>
			<g id="path536">
				<path class="st2" d="M1040.6,248c-0.6,0-1.1-0.2-1.5-0.6c-13.3-12.5-12.7-29.1-11.9-48.4c0.4-10.9,0.9-23.3-1.2-36.4
					c-3.4-21-7.2-27.7-14.3-39.9c-2.3-4-4.9-8.5-7.9-14.3c-0.6-1.1-0.1-2.5,1-3c1.1-0.6,2.5-0.1,3,1c3,5.7,5.6,10.2,7.9,14.1
					c7.3,12.7,11.3,19.6,14.8,41.4c2.2,13.5,1.7,26.1,1.3,37.3c-0.7,18.9-1.3,33.9,10.5,45c0.9,0.8,1,2.3,0.1,3.2
					C1041.9,247.8,1041.3,248,1040.6,248L1040.6,248z"/>
			</g>
			<g id="path538">
				<path class="st0" d="M1014.2,217c25.6,19.9,37.6,29.4,59.7,39.8c32.9,27.9,25.8,67-2.8,73.9c-19.9,44.1-57.3,40.3-78.6,36
					c-29.5-5.9-61.2-14.5-102.7-25c-27.2-28.3-24.1-96.5,8-119.1C933.3,197.5,982.2,203,1014.2,217"/>
			</g>
			<g id="path540">
				<path class="st3" d="M1014.7,212.8c6.3,7.8,14.3,17.3,19.5,21.3c13.5,10.4,38.7,17.8,39.3,38.3c0.6,18.6-12.9,26.9-28.4,28.9
					c-16.3,2.1-29.8-7.4-43.8-14.2c-2.5-1.2-27.2-8-29.5-5c0.6-0.8,8.2-9.2,9.3-10.4c-1.3-1.9-36.8-8.2-36.8-8.3
					c3.1-4,7.6-5.9,10.9-9.5c-1.3-1.1-22.4-8.8-22.6-8.5c3.1-4,7.8-6.1,12.8-7.1c-0.8-4.1-3.9-21.5-5.5-23.3
					c3.1,3.4,6.6,6.8,11.4,6.8c0.6-11.4,3.2-22,4.1-33.3c3.1,5.2,5.7,11.7,10.3,15.9c4.3-5.3,5.6-13.1,10.6-18.1
					c4.7,4.6,10.1,9.1,13.3,15.2c3-5.3,4.6-11.2,4.7-17.3C1000.7,199.6,1008,204.5,1014.7,212.8"/>
			</g>
			<g id="path542">
				<path class="st2" d="M1017.7,373.1c-12.7,0-24.4-3.4-31.8-6.2c-21.6-8.1-52.3-13.5-69.9-12.4c-1.2,0.1-2.3-0.9-2.4-2.1
					c-0.1-1.2,0.9-2.3,2.1-2.4c18.1-1.2,49.6,4.4,71.7,12.6c11.4,4.3,33.4,10.1,52.9,1.3c12.8-5.9,22.4-17.3,28.6-34
					c0.3-0.8,1.1-1.4,2-1.5c9.2-0.6,18.2-10.8,21.4-24.3c1.7-7,5.2-31-19.5-45.5c-5.3-3.3-10.1-6.1-14.4-8.8
					c-25.6-15.5-36.2-21.9-47.1-40.5c-0.7-1-0.3-2.4,0.7-3.1c1-0.7,2.4-0.3,3.1,0.7c0,0,0,0.1,0.1,0.1c10.4,17.7,20,23.5,45.6,39
					c4.3,2.6,9.1,5.5,14.4,8.8c21.7,12.7,25.4,34.3,21.6,50.3c-3.6,14.9-13.3,26-24,27.6c-6.6,17.2-16.8,29-30.4,35.3
					C1034.5,371.6,1026.2,373.3,1017.7,373.1z"/>
			</g>
			<g id="path544">
				<path class="st2" d="M922.7,169.6c13.2,0.1,14.2,19.9,3.2,21.8C911.3,194,913.5,169.6,922.7,169.6"/>
			</g>
			<g id="path546">
				<path class="st2" d="M1004.5,163.4c11.3-1.9,13.7,21.2,2.5,21.2C998.3,184.6,996,164.9,1004.5,163.4"/>
			</g>
			<g id="path548">
				<path class="st2" d="M1013.9,343.6c-13,0-28.4-2.6-45.8-7.9H968c-2.9-1-5.7-2-8.4-3c-26.8-9.4-44.5-15.7-52.7-49.8
					c-0.3-1.2,0.5-2.4,1.7-2.7c1.2-0.3,2.4,0.5,2.7,1.7c7.7,31.7,23.5,37.3,49.9,46.6c2.7,1,5.5,1.9,8.4,3c46.3,13.9,76,9,88.3-14.5
					c0.4-0.7,1.2-1.2,2-1.2l0,0c0.8,0,1.6,0.5,2,1.2c5.8,11.6,9.6,11.6,12.2,11.6c1.2,0,2.2,1,2.2,2.2c0,1.2-1,2.2-2.2,2.2
					c-4.9,0-9.3-1.9-14.3-10.4c-8.2,12.9-22,19.9-41,20.9C1017.1,343.5,1015.5,343.6,1013.9,343.6z"/>
			</g>
			<g id="path550">
				<path class="st6" d="M1059.7,319.4c3.2-12.7-0.1-28.7,0-42.6"/>
			</g>
			<g id="path552">
				<path class="st2" d="M1059.7,321.6c-0.2,0-0.4,0-0.5-0.1c-1.2-0.3-1.9-1.5-1.6-2.7c2-8,1.3-17.7,0.6-27.1
					c-0.3-5-0.7-10.1-0.7-15c0-1.2,1-2.2,2.2-2.2l0,0l0,0c1.2,0,2.2,1,2.2,2.2c0,0,0,0,0,0c0,4.7,0.3,9.7,0.7,14.6
					c0.7,9.8,1.4,19.9-0.7,28.5C1061.6,320.9,1060.7,321.6,1059.7,321.6z"/>
			</g>
			<g id="path554">
				<path class="st7" d="M1024.2,268.2c8.5-19.9,59.4-16.4,67.3-1.2c7.6,14.7-7.6,38.2-27.5,38.2
					C1041.2,305.1,1015.4,288.6,1024.2,268.2"/>
			</g>
			<g id="path556">
				<path class="st2" d="M1064,307.4c-16.2,0-32.6-7.7-39.9-18.7c-4.4-6.3-5.2-14.4-2-21.4l0,0c3.8-9,15.5-14.5,31.8-15.1
					c15.8-0.6,34.4,4,39.5,13.8c3.7,7.2,2.8,16.6-2.4,25.1C1084.8,301.1,1074.5,307.4,1064,307.4z M1056.7,256.6c-0.9,0-1.7,0-2.6,0
					c-14.4,0.5-24.8,5.1-27.9,12.4l0,0c-2.6,5.6-2,12.2,1.6,17.2c6.4,9.6,21.6,16.6,36.1,16.6c9,0,17.9-5.4,23.2-14.1
					c4.4-7.2,5.3-15,2.3-20.8C1086.1,261.5,1072,256.6,1056.7,256.6L1056.7,256.6z M1024.2,268.2L1024.2,268.2z"/>
			</g>
			<g id="path558">
				<path class="st2" d="M664.6,766.5c-1,0-1.9-0.7-2.2-1.6c-3-10.8-9.4-24-16.9-38.9c-0.5-1.1,0-2.5,1.2-2.9c1-0.4,2.3,0,2.8,0.9
					c7.6,15.1,14.1,28.6,17.2,39.7c0.3,1.2-0.3,2.4-1.5,2.8c0,0,0,0,0,0C665,766.5,664.8,766.5,664.6,766.5z"/>
			</g>
			<g id="path560">
				<path class="st2" d="M784,789.7c-1.2,0-2.2-1-2.2-2.3c0-0.3,0.1-0.7,0.2-1c4.1-8.2,27-48.5,32.5-55.3c0.8-0.9,2.2-1,3.2-0.2
					c0.9,0.8,1,2.1,0.3,3c-5,6.3-27.3,45.2-32,54.5C785.6,789.2,784.8,789.7,784,789.7z"/>
			</g>
			<g id="path562">
				<path class="st2" d="M488.8,713.8c-1.2,0-2.2-1-2.2-2.2c0-0.3,0.1-0.6,0.2-0.9c4.8-11.3,11-24.8,17.4-29.2
					c1-0.7,2.4-0.5,3.1,0.5s0.5,2.4-0.5,3.1c-6.1,4.3-13.2,21-15.9,27.3C490.5,713.2,489.7,713.7,488.8,713.8z"/>
			</g>
			<g id="path564">
				<path class="st2" d="M850.8,803.4L850.8,803.4c-1.2,0-2.2-1.1-2.2-2.3c0,0,0,0,0,0c0.4-17.6,7.6-48.2,22.5-60.8
					c1-0.8,2.4-0.7,3.2,0.3c0.3,0.4,0.5,0.9,0.5,1.5c0,2.2,1.1,4.5,2.2,6.7c1.2-1.1,2.8-2.5,4.9-4.3c10.9-9.4,31.2-26.9,39.4-48.3
					c0.5-1.1,1.8-1.7,2.9-1.2c1.1,0.5,1.7,1.7,1.3,2.8c-8.7,22.5-29.5,40.5-40.7,50.1c-2.1,1.7-4.2,3.6-6.1,5.6
					c-0.1,0.8-0.7,1.4-1.5,1.7c-1.2,0.4-2.4-0.2-2.8-1.4c-0.4-1-0.8-1.9-1.3-2.9c-0.7-1.4-1.4-2.9-1.9-4.4
					c-11.7,13.1-17.7,39.6-18,54.7C853.1,802.4,852,803.4,850.8,803.4C850.8,803.4,850.8,803.4,850.8,803.4z"/>
			</g>
			<g id="path566">
				<path class="st2" d="M882.3,1143.8c-1.2,0-2.2-1-2.2-2.2c0-7.9-1.4-34.6-19.1-45.7c-1-0.7-1.4-2-0.7-3.1c0.7-1,2-1.4,3.1-0.7
					c19.7,12.3,21.2,41,21.2,49.5C884.5,1142.8,883.5,1143.8,882.3,1143.8C882.3,1143.8,882.3,1143.8,882.3,1143.8z"/>
			</g>
			<g id="path568">
				<path class="st2" d="M930.4,1144.5c-1.2,0-2.2-1-2.2-2.2c0,0,0,0,0,0c0-14.7-5.8-36.6-16.5-48.2c-0.9-0.8-1-2.2-0.2-3.2
					c0.8-0.9,2.2-1,3.2-0.2c0.1,0.1,0.2,0.2,0.3,0.3c11.5,12.6,17.6,35.3,17.6,51.2C932.6,1143.5,931.6,1144.5,930.4,1144.5
					L930.4,1144.5z"/>
			</g>
			<g id="path570">
				<path class="st2" d="M721.4,1147.4h-0.2c-1.2-0.1-2.1-1.2-2-2.5c1.3-12.4-3.3-37.6-16.9-41.7c-1.2-0.4-1.8-1.6-1.5-2.8
					c0.4-1.2,1.6-1.8,2.8-1.5c17,5.1,21.5,33.2,20.1,46.4C723.5,1146.5,722.6,1147.4,721.4,1147.4z"/>
			</g>
			<g id="path572">
				<path class="st2" d="M771.2,1147.4h-0.3c-1.2-0.1-2.1-1.2-2-2.4c0,0,0,0,0-0.1c2.5-21-2.7-31.3-15.2-46.7
					c-0.8-1-0.6-2.4,0.3-3.2c1-0.8,2.4-0.6,3.2,0.3c13,16,18.8,27.6,16.1,50C773.2,1146.5,772.3,1147.3,771.2,1147.4z"/>
			</g>
			<g id="path574">
				<path class="st2" d="M747.6,1149.3h-0.4c-1.2-0.2-2-1.4-1.8-2.6c0,0,0,0,0,0c2.5-13.9-1-28.4-10.2-43c-0.7-1-0.4-2.4,0.7-3.1
					c1-0.7,2.4-0.4,3.1,0.7c9.9,15.6,13.5,31.2,10.9,46.2C749.6,1148.6,748.7,1149.4,747.6,1149.3z"/>
			</g>
			<g id="path576">
				<path class="st2" d="M906.2,1143.1c-1.2,0-2.1-0.9-2.2-2.1c-1.4-22-2.7-30.8-12.3-42.8c-0.8-1-0.6-2.4,0.3-3.2s2.4-0.6,3.2,0.3
					c10.3,13,11.9,22.7,13.3,45.3c0.1,1.2-0.9,2.3-2.1,2.4c0,0,0,0,0,0L906.2,1143.1z"/>
			</g>
			<g id="path578">
				<path class="st2" d="M293.6,1113.2c-1.2,0-2.2-1-2.2-2.2c0-1.6,0-3.5,0.1-5.4c0.3-13.3,0.7-33.4-10.1-38
					c-1.1-0.5-1.7-1.8-1.2-2.9c0.5-1.1,1.8-1.7,2.9-1.2c13.6,5.7,13.1,27.7,12.8,42.2c0,1.9-0.1,3.8-0.1,5.4
					C295.9,1112.2,294.9,1113.2,293.6,1113.2L293.6,1113.2z"/>
			</g>
			<g id="path580">
				<path class="st2" d="M324.9,1117.5c-1.2,0-2.2-1-2.2-2.2c0-13.9-1-28.5-8.2-41.6c-0.6-1.1-0.3-2.4,0.7-3.1
					c1.1-0.6,2.4-0.3,3.1,0.7c0,0,0.1,0.1,0.1,0.2c7.8,14,8.8,30,8.8,43.7C327.2,1116.5,326.1,1117.5,324.9,1117.5
					C324.9,1117.5,324.9,1117.5,324.9,1117.5z"/>
			</g>
			<g id="path582">
				<path class="st2" d="M351.9,1114.7c-1.2,0-2.2-1-2.2-2.2c-0.1-16.4-1.7-36.4-13.3-45.1c-1-0.7-1.2-2.1-0.4-3.1s2.1-1.2,3.1-0.4
					l0,0c13.2,9.9,15,31.2,15.1,48.7C354.2,1113.7,353.2,1114.7,351.9,1114.7C351.9,1114.7,351.9,1114.7,351.9,1114.7L351.9,1114.7z
					"/>
			</g>
		</g>
	</g>
</g>
</svg>
