<?xml version="1.0" encoding="UTF-8" standalone="no"?>
<!-- Created with Inkscape (http://www.inkscape.org/) -->

<svg
   xmlns:dc="http://purl.org/dc/elements/1.1/"
   xmlns:cc="http://creativecommons.org/ns#"
   xmlns:rdf="http://www.w3.org/1999/02/22-rdf-syntax-ns#"
   xmlns:svg="http://www.w3.org/2000/svg"
   xmlns="http://www.w3.org/2000/svg"
   xmlns:sodipodi="http://sodipodi.sourceforge.net/DTD/sodipodi-0.dtd"
   xmlns:inkscape="http://www.inkscape.org/namespaces/inkscape"
   width="131.01289mm"
   height="94.044762mm"
   viewBox="0 0 131.01289 94.044762"
   version="1.1"
   id="svg970"
   inkscape:version="0.92.5 (2060ec1f9f, 2020-04-08)"
   sodipodi:docname="simulation-logic.svg">
  <defs
     id="defs964" />
  <sodipodi:namedview
     id="base"
     pagecolor="#ffffff"
     bordercolor="#666666"
     borderopacity="1.0"
     inkscape:pageopacity="0.0"
     inkscape:pageshadow="2"
     inkscape:zoom="0.35"
     inkscape:cx="359.012"
     inkscape:cy="543.43664"
     inkscape:document-units="mm"
     inkscape:current-layer="layer1"
     showgrid="false"
     fit-margin-top="5"
     fit-margin-left="5"
     fit-margin-right="5"
     fit-margin-bottom="5"
     inkscape:window-width="1920"
     inkscape:window-height="1015"
     inkscape:window-x="0"
     inkscape:window-y="0"
     inkscape:window-maximized="1" />
  <metadata
     id="metadata967">
    <rdf:RDF>
      <cc:Work
         rdf:about="">
        <dc:format>image/svg+xml</dc:format>
        <dc:type
           rdf:resource="http://purl.org/dc/dcmitype/StillImage" />
        <dc:title></dc:title>
      </cc:Work>
    </rdf:RDF>
  </metadata>
  <g
     inkscape:label="Layer 1"
     inkscape:groupmode="layer"
     id="layer1"
     transform="translate(110.86359,-198.57285)">
    <g
       id="g6247"
       transform="translate(-113.95408,-3.332148)">
      <path
         style="fill:#048b67;fill-opacity:1;stroke-width:0.0369"
         id="path1585"
         d="m 87.69,249.1 q 0,2.1 0,4.2 c 0,0.1 0.04,0.1 0.11,0.1 h 2.95 3.24 c 0.6,0.2 0.85,0.7 0.85,1.3 0,1 0,2 0,3.1 0.04,1 0,2 0.04,3 0,0.2 0,0.4 0,0.6 0.25,0 0.47,0.1 0.7,0.1 q 2.46,0 4.92,0 c 0.2,0 0.3,0 0.5,0 0.4,0.1 0.7,0.3 0.7,0.7 0,0.1 0,0.2 0,0.3 q 0,4.4 0,8.7 c 0,0.1 0,0.3 0,0.4 0,0.6 -0.3,1 -1,1 -0.2,0 -0.5,0 -0.77,0 H 51.04 q -14.65,0 -29.29,0 c -0.25,0 -0.51,0 -0.74,0 -0.54,0 -0.76,-0.3 -0.69,-0.9 a 7.129,7.129 0 0 0 0.06,-0.9 q 0,-8 0,-15.9 c 0,-0.4 -0.06,-0.8 0.31,-1.2 0.21,0 0.55,0 0.88,0 q 2.15,0 4.28,0 c 0.15,0 0.29,0 0.45,0 h 0.87 c 0.49,0.1 0.97,0.1 1.48,0.2 0.41,0 0.56,0.1 0.59,0.5 0.04,0.2 0,0.4 0,0.6 q 0.04,3.2 0.11,6.4 c 0,0.3 -0.07,0.5 0.11,0.8 0.31,0 0.63,0 1,0 q 2.41,0.1 4.84,0.1 h 0.43 c 0.43,0.1 0.71,0.4 0.74,0.9 -0.06,0.5 -0.04,1 0,1.6 h 0.44 c 0.17,0 0.35,0 0.52,0 q 2.06,0 4.13,0 c 0.19,0 0.39,0 0.54,0 0.22,-0.2 0.17,-0.4 0.17,-0.6 q 0.01,-3 0.03,-5.9 0.02,-7.4 0.05,-14.7 c 0,-0.2 -0.01,-0.4 0.02,-0.6 0.04,-0.4 0.29,-0.6 0.66,-0.6 0.38,-0.1 0.74,0 1.12,0 h 0.59 c 1.03,0.1 2.06,0.1 3.09,0.1 h 0.45 c 0.51,0.1 1.01,0.1 1.53,0.1 0.75,0.1 0.96,0.3 1,1 0.03,0.6 0.03,1.2 0.04,1.7 a 2.364,2.364 0 0 0 0.05,0.3 c -0.05,0.2 0,0.3 0.19,0.3 0.39,0 0.78,0 1.17,0 q 2.07,0 4.12,0 c 0.19,0 0.39,0 0.59,0 0.14,-0.3 0.1,-0.6 0.1,-0.8 q 0,-4 -0.01,-8 c 0,-1.4 -0.03,-2.8 -0.03,-4.2 -0.01,-0.4 -0.04,-0.7 0.15,-1.1 0.34,-0.1 0.7,-0.1 1.08,-0.1 1.77,0 3.57,0 5.38,0 h 0.7 c 0,-0.1 0.07,-0.2 0.07,-0.3 q 0,-2.4 -0.03,-4.7 a 0.7144,0.7144 0 0 0 0,-0.1 2.481,2.481 0 0 0 0.03,-0.3 q -0.03,-3 -0.03,-5.9 a 2.559,2.559 0 0 0 -0.04,-0.3 c 0.04,-0.3 0.04,-0.6 0.04,-0.8 q 0,-4.1 0,-8.1 c 0,-0.2 0,-0.4 0,-0.6 0,-0.6 0.22,-0.8 0.88,-0.8 0.62,-0.1 1.25,-0.1 1.92,-0.1 0.14,-0.1 0.29,-0.1 0.41,-0.1 h 0.58 c 0.6,0 1.14,0 1.7,0 0.96,0 1.88,0 2.8,0 0.52,0 0.67,0.1 0.74,0.6 a 5.385,5.385 0 0 1 0.04,0.7 c 0,1 0,2 0,3.1 0,0.2 0.03,0.4 0.03,0.6 q 0,1.6 0.04,3.1 c -0.04,0.2 -0.04,0.4 -0.04,0.6 q 0.04,9.9 0.09,19.7 c 0,1 0.02,1.9 0.02,2.9 -0.02,0.1 0,0.3 0.18,0.3 0.34,0 0.72,0 1.05,0 q 2.18,-0.1 4.35,-0.1 c 0.03,0 0.07,0 0.14,-0.1 0.15,-0.1 0.08,-0.4 0.08,-0.6 0,-2.3 0,-4.6 0,-6.9 0.03,-2.3 0.03,-4.6 0.03,-7 0,-0.5 0.08,-1.1 0.27,-1.6 l 1.03,-0.2 h 1.77 c 0.69,0 1.39,0 2.06,0 0.67,0 1.32,0 1.99,0 0.52,-0.1 0.97,0.3 0.97,0.9 -0.05,0.2 0,0.5 0,0.7 q 0.02,7.3 0.07,14.6 c 0,2.1 0.04,4.1 0.04,6.2 0,0.1 0.03,0.3 0.03,0.4 z M 65.88,211.2 c -0.11,0.3 -0.06,0.6 -0.06,0.9 0,6.4 0,12.8 0.04,19.3 0.02,6.4 -0.04,12.8 0.07,19.2 0.11,6.5 0.04,13 0.04,19.4 0,0.2 0,0.5 0,0.7 0,0.1 0.07,0.2 0.1,0.4 0.53,0 1,0.1 1.47,0.1 0.49,0 1.01,0 1.48,0 0.49,0 1.01,0 1.48,0 0.47,-0.1 0.96,0 1.5,-0.1 0,-0.3 0,-0.6 0,-0.9 -0.02,-7.6 0,-15.2 -0.07,-22.8 -0.11,-10.8 -0.02,-21.5 -0.02,-32.3 0,-1.1 0,-2.3 -0.04,-3.5 0,-0.2 -0.05,-0.4 -0.05,-0.6 -0.29,-0.1 -0.54,-0.1 -0.76,0 -0.56,0 -1.08,0 -1.63,0 -0.99,0.1 -1.96,0.1 -2.95,0.1 -0.19,0 -0.37,0 -0.6,0.1 z m 20.44,59.9 c 0,-0.3 0.04,-0.6 0,-0.9 -0.04,-3.3 0,-6.6 -0.07,-10 -0.11,-4.1 -0.04,-8.1 -0.08,-12.2 0,-4 0.08,-8.1 -0.07,-12.1 -0.07,-1.3 -0.03,-2.6 -0.03,-3.9 0,-1.7 0,-3.4 0,-5.1 0,-0.3 0.07,-0.5 -0.15,-0.8 -0.11,0 -0.27,0 -0.41,0 q -2.21,0 -4.43,0 c -0.03,0 -0.07,0.1 -0.18,0.1 -0.07,0.3 -0.04,0.6 -0.04,0.9 q 0,13.5 -0.03,27 c 0,2.5 0.03,4.9 -0.04,7.3 -0.11,3.1 -0.03,6.2 -0.03,9.2 0,0.2 0.03,0.3 0.07,0.4 0.58,0.2 4.71,0.2 5.49,0.1 z M 58.47,233.2 c 0,0.3 0,0.6 0,0.8 q 0,18.1 0,36.2 c 0,0.1 -0.03,0.3 0,0.5 0,0.1 0.04,0.3 0.08,0.4 0.11,0 0.18,0 0.25,0 q 2.62,0.1 5.24,0.1 a 2.525,2.525 0 0 0 0.26,-0.1 0.1726,0.1726 0 0 0 0.08,0 0.7723,0.7723 0 0 0 0.11,-0.1 c 0.07,-0.3 0.03,-0.6 0.03,-1 0,-5.2 0,-10.5 -0.03,-15.7 -0.04,-5.4 0.07,-10.6 -0.08,-15.9 -0.07,-1.5 -0.03,-3 -0.03,-4.5 0,-0.2 -0.04,-0.4 -0.04,-0.7 -1.22,0 -2.4,-0.1 -3.59,-0.1 -0.65,0 -1.32,0 -1.97,0 -0.09,0 -0.12,0 -0.31,0.1 z m 20.81,37.9 c 0.03,-0.1 0.07,-0.2 0.07,-0.2 0.04,-0.1 0.04,-0.3 0.04,-0.4 q 0,-13.9 0,-27.8 a 0.1423,0.1423 0 0 0 -0.04,0 c 0,-0.1 -0.04,-0.1 -0.11,-0.1 -0.22,-0.1 -0.52,-0.1 -0.81,-0.1 -0.6,0.1 -1.21,0.1 -1.81,0.1 -0.88,0 -1.73,0 -2.58,0 -0.18,0.1 -0.33,0.1 -0.52,0.1 v 0.9 q 0,13.3 -0.04,26.6 c 0,0.1 0,0.3 0,0.5 0.04,0.1 0.09,0.2 0.09,0.4 1.91,0.1 3.83,0.1 5.71,0 z m -29.85,0 c 0.02,-0.3 0.03,-0.6 0.03,-0.9 q 0,-12.5 -0.01,-25 c 0,-0.3 0.01,-0.5 0,-0.7 a 3.163,3.163 0 0 0 -0.07,-0.4 c -0.09,0 -0.13,-0.1 -0.17,-0.1 -1.2,-0.1 -2.41,0 -3.61,-0.1 -0.56,-0.1 -1.13,-0.1 -1.69,-0.1 a 0.1335,0.1335 0 0 0 -0.07,0.1 c -0.01,0 -0.02,0 -0.09,0.1 -0.02,0.2 -0.03,0.5 -0.03,0.8 q -0.02,12.7 -0.03,25.4 c 0,0.1 -0.01,0.3 0,0.5 0.01,0.1 0.06,0.2 0.1,0.4 z m 7.49,0.1 c 0.14,-0.4 0.1,-0.7 0.1,-1 q 0,-11 0,-21.9 c 0,-0.1 0,-0.3 -0.02,-0.5 0,-0.1 -0.04,-0.2 -0.07,-0.4 -0.15,0 -0.28,0 -0.39,0 q -2.62,0 -5.24,0 c -0.11,0 -0.24,0 -0.32,0 -0.03,0.1 -0.06,0.2 -0.07,0.2 0,0.2 -0.01,0.4 -0.01,0.6 q 0.02,11.4 0.04,22.7 a 0.142,0.142 0 0 0 0.01,0.1 c 0.02,0 0.04,0 0.11,0.1 a 1.878,1.878 0 0 0 0.3,0 c 1.84,0.1 3.68,0.1 5.56,0.1 z m -29.04,-0.3 c 0,-0.3 0.03,-0.6 0.03,-0.8 q 0,-7 0,-14 c 0,-0.2 0,-0.3 0,-0.5 -0.03,-0.1 -0.07,-0.2 -0.11,-0.4 -0.25,0 -0.51,0 -0.77,0 -0.96,0 -1.92,0 -2.88,0 -0.48,0 -0.95,-0.1 -1.44,-0.1 -0.29,0 -0.55,-0.1 -0.76,0.1 -0.16,0.6 -0.23,10.9 -0.12,15.2 0,0.2 0.03,0.4 0.07,0.5 0.16,0.1 0.3,0.1 0.45,0.1 2.13,0.1 4.82,0 5.53,-0.1 z M 87.69,255 c 0,0.3 -0.04,0.5 0,0.7 0.04,3.3 -0.07,6.5 0.07,9.8 0.08,1.6 0.04,3.3 0.04,4.9 0,0.2 -0.07,0.5 0.18,0.7 0.18,0 0.4,0 0.63,0 q 2.28,0 4.61,0 a 0.132,0.132 0 0 0 0.07,0 1.13,1.13 0 0 0 0.11,-0.1 c 0,-0.2 0.04,-0.5 0.04,-0.8 q 0,-7 0,-14.1 c 0,-0.2 0,-0.5 -0.04,-0.8 0,-0.1 -0.04,-0.2 -0.07,-0.4 -0.85,-0.1 -5.02,-0.1 -5.64,0.1 z m 12.61,8 c -0.51,-0.2 -0.96,-0.1 -1.41,-0.1 -0.43,0 -0.87,0 -1.32,0 -0.45,0 -0.88,0 -1.32,0.1 -0.45,0 -0.9,-0.1 -1.3,0 -0.03,0.2 -0.07,0.3 -0.07,0.4 q 0,3.7 0,7.4 c 0,0.1 0.07,0.2 0.07,0.3 0.18,0 0.29,0 0.4,0 q 2.4,0 4.75,0 a 0.1287,0.1287 0 0 0 0.1,0 0.3319,0.3319 0 0 0 0.1,-0.1 c 0.1,-0.6 0.1,-4.3 0,-7.5 0,-0.2 0,-0.3 0,-0.5 z m -65.32,0.8 c -0.97,-0.1 -1.88,0 -2.78,-0.1 -0.93,0 -1.85,-0.2 -2.77,0 -0.04,0.1 -0.08,0.2 -0.08,0.3 q 0,3.3 0,6.6 c 0,0.2 0.08,0.3 0.11,0.4 0.26,0 0.52,0 0.74,0 0.33,0 0.66,0 0.96,0 1.11,0.2 2.21,0.1 3.32,0.1 0.13,0 0.27,-0.1 0.41,-0.1 0.05,-0.1 0.09,-0.2 0.09,-0.3 0,-2.3 0,-4.6 0,-6.9 z m 7.16,7.3 c 0.04,-0.1 0.09,-0.2 0.09,-0.3 q 0.01,-2.1 0,-4.3 c 0,0 -0.06,-0.1 -0.1,-0.2 -0.15,0 -0.27,-0.1 -0.39,-0.1 q -2.54,0.1 -5.08,0.1 a 0.1501,0.1501 0 0 0 -0.07,0 0.7819,0.7819 0 0 0 -0.08,0.1 c -0.01,0 -0.06,0.1 -0.06,0.2 q 0,2.1 0,4.2 c 0,0.1 0.07,0.2 0.12,0.3 z"
         class="cls-2"
         inkscape:connector-curvature="0" />
      <path
         style="fill:#06c693;fill-opacity:1;stroke-width:0.0369"
         id="path2671"
         d="m 65.88,211.2 c 0.23,-0.1 0.41,-0.1 0.6,-0.1 0.99,0 1.96,0 2.95,-0.1 0.55,0 1.07,0 1.63,0 0.22,-0.1 0.47,-0.1 0.76,0 0,0.2 0.05,0.4 0.05,0.6 0.04,1.2 0.04,2.4 0.04,3.5 0,10.8 -0.09,21.5 0.02,32.3 0.07,7.6 0.05,15.2 0.07,22.8 0,0.3 0,0.6 0,0.9 -0.54,0.1 -1.03,0 -1.5,0.1 -0.47,0 -0.99,0 -1.48,0 -0.47,0 -0.99,0 -1.48,0 -0.47,0 -0.94,-0.1 -1.47,-0.1 -0.03,-0.2 -0.07,-0.3 -0.1,-0.4 0,-0.2 0,-0.5 0,-0.7 0,-6.4 0.07,-12.9 -0.04,-19.4 -0.11,-6.4 -0.05,-12.8 -0.07,-19.2 -0.04,-6.5 -0.04,-12.9 -0.04,-19.3 0,-0.3 -0.05,-0.6 0.06,-0.9 z"
         class="cls-16"
         inkscape:connector-curvature="0" />
      <path
         style="fill:#06c693;fill-opacity:1;stroke-width:0.0369"
         id="path2673"
         d="m 86.32,271.1 c -0.78,0.1 -4.91,0.1 -5.49,-0.1 -0.04,-0.1 -0.07,-0.2 -0.07,-0.4 0,-3 -0.08,-6.1 0.03,-9.1 0.07,-2.5 0.04,-4.9 0.04,-7.4 q 0.03,-13.5 0.03,-27 c 0,-0.3 -0.03,-0.6 0.04,-0.9 0.11,0 0.15,-0.1 0.18,-0.1 q 2.22,0 4.43,0 c 0.14,0 0.3,0 0.41,0 0.22,0.3 0.15,0.5 0.15,0.8 0,1.7 0,3.4 0,5.1 0,1.3 -0.04,2.6 0.03,3.9 0.15,4 0.07,8.1 0.07,12.1 0.04,4.1 -0.03,8.1 0.08,12.2 0.07,3.4 0.03,6.7 0.07,10 0.04,0.3 0,0.6 0,0.9 z"
         class="cls-16"
         inkscape:connector-curvature="0" />
      <path
         style="fill:#06c693;fill-opacity:1;stroke-width:0.0369"
         id="path2675"
         d="m 58.47,233.2 c 0.19,-0.1 0.22,-0.1 0.31,-0.1 0.65,0 1.32,0 1.97,0 1.19,0 2.37,0.1 3.59,0.1 0,0.3 0.04,0.5 0.04,0.7 0,1.5 -0.04,3 0.03,4.5 0.15,5.3 0.04,10.5 0.08,15.9 0.03,5.2 0.03,10.5 0.03,15.7 0,0.3 0.04,0.7 -0.03,1 a 0.7723,0.7723 0 0 1 -0.11,0.1 0.1726,0.1726 0 0 1 -0.08,0 2.525,2.525 0 0 1 -0.26,0.1 q -2.62,0 -5.24,-0.1 c -0.07,0 -0.14,0 -0.25,0 -0.04,-0.2 -0.08,-0.3 -0.08,-0.4 -0.03,-0.2 0,-0.4 0,-0.5 q 0,-18.1 0,-36.2 c 0,-0.2 0,-0.5 0,-0.8 z"
         class="cls-16"
         inkscape:connector-curvature="0" />
      <path
         style="fill:#06c693;fill-opacity:1;stroke-width:0.0369"
         id="path2677"
         d="m 79.28,271.1 c -1.88,0.1 -3.8,0.1 -5.71,0 0,-0.2 -0.05,-0.3 -0.09,-0.4 0,-0.2 0,-0.4 0,-0.5 q 0.04,-13.3 0.04,-26.6 v -0.9 c 0.19,0 0.34,0 0.52,-0.1 0.85,0 1.7,0 2.58,0 0.6,0 1.21,0 1.84,-0.1 0.26,0 0.56,0 0.78,0.1 0.07,0 0.11,0 0.11,0.1 a 0.1423,0.1423 0 0 1 0.04,0 q 0,13.9 0,27.8 c 0,0.1 0,0.3 -0.04,0.4 0,0 -0.04,0.1 -0.07,0.2 z"
         class="cls-16"
         inkscape:connector-curvature="0" />
      <path
         style="fill:#06c693;fill-opacity:1;stroke-width:0.0369"
         id="path2679"
         d="m 49.43,271.1 h -5.64 c -0.04,-0.2 -0.09,-0.3 -0.1,-0.4 -0.01,-0.2 0,-0.4 0,-0.5 q 0.01,-12.7 0.03,-25.4 c 0,-0.3 0.01,-0.6 0.03,-0.8 0.07,-0.1 0.08,-0.1 0.09,-0.1 a 0.1335,0.1335 0 0 1 0.07,-0.1 c 0.56,0 1.13,0 1.69,0.1 1.2,0.1 2.41,0 3.61,0.1 0.04,0 0.08,0.1 0.17,0.1 a 3.163,3.163 0 0 1 0.07,0.4 c 0.01,0.2 0,0.4 0,0.7 q 0.01,12.5 0.01,25 c 0,0.3 -0.01,0.6 -0.03,0.9 z"
         class="cls-16"
         inkscape:connector-curvature="0" />
      <path
         style="fill:#06c693;fill-opacity:1;stroke-width:0.0369"
         id="path2681"
         d="m 56.92,271.2 c -1.88,0 -3.72,0 -5.56,-0.1 a 1.878,1.878 0 0 1 -0.3,0 C 50.99,271 50.97,271 50.95,271 a 0.142,0.142 0 0 1 -0.01,-0.1 q -0.02,-11.3 -0.03,-22.7 c 0,-0.2 0,-0.4 0.01,-0.6 0,0 0.03,-0.1 0.06,-0.2 0.1,0 0.21,0 0.32,0 q 2.62,0 5.24,-0.1 c 0.13,0 0.24,0.1 0.39,0.1 0.03,0.2 0.07,0.3 0.09,0.4 0,0.2 0,0.4 0,0.5 q 0,10.9 0,21.9 c 0,0.3 0.04,0.6 -0.1,1 z"
         class="cls-16"
         inkscape:connector-curvature="0" />
      <path
         style="fill:#06c693;fill-opacity:1;stroke-width:0.0369"
         id="path2683"
         d="m 27.88,270.9 c -0.71,0.1 -3.4,0.2 -5.53,0.1 -0.15,0 -0.29,0 -0.45,-0.1 -0.04,-0.1 -0.07,-0.3 -0.07,-0.5 -0.11,-4.3 -0.04,-14.6 0.12,-15.2 0.21,-0.2 0.47,-0.1 0.76,-0.1 0.49,0 0.96,0.1 1.44,0.1 0.96,0 1.92,0 2.88,0 0.26,0 0.52,0 0.77,0 0.04,0.2 0.08,0.3 0.11,0.4 0,0.2 0,0.3 0,0.5 q 0,7 0,14 c 0,0.2 -0.03,0.5 -0.03,0.8 z"
         class="cls-16"
         inkscape:connector-curvature="0" />
      <path
         style="fill:#06c693;fill-opacity:1;stroke-width:0.0369"
         id="path2685"
         d="m 87.69,255 c 0.62,-0.2 4.79,-0.2 5.64,-0.1 0.03,0.2 0.07,0.3 0.07,0.4 0.04,0.3 0.04,0.6 0.04,0.8 q 0,7.1 0,14.1 c 0,0.3 -0.04,0.6 -0.04,0.8 a 1.13,1.13 0 0 1 -0.11,0.1 0.132,0.132 0 0 1 -0.07,0 q -2.33,0 -4.61,0 c -0.23,0 -0.45,0 -0.63,0 -0.25,-0.2 -0.18,-0.5 -0.18,-0.7 0,-1.6 0.04,-3.3 -0.04,-4.9 -0.14,-3.3 -0.03,-6.5 -0.07,-9.8 -0.04,-0.2 0,-0.4 0,-0.7 z"
         class="cls-16"
         inkscape:connector-curvature="0" />
      <path
         style="fill:#06c693;fill-opacity:1;stroke-width:0.0369"
         id="path2687"
         d="m 100.3,263 c 0,0.2 0,0.3 0,0.5 0.1,3.2 0.1,6.9 0,7.5 a 0.3319,0.3319 0 0 1 -0.1,0.1 0.1287,0.1287 0 0 1 -0.1,0 q -2.35,0 -4.75,0 c -0.11,0 -0.22,0 -0.4,0 0,-0.1 -0.07,-0.2 -0.07,-0.3 q 0,-3.7 0,-7.4 c 0,-0.1 0.04,-0.2 0.07,-0.4 0.4,-0.1 0.85,0 1.3,0 0.44,-0.1 0.87,-0.1 1.32,-0.1 0.45,0 0.89,0 1.32,0 0.45,0 0.9,-0.1 1.41,0.1 z"
         class="cls-16"
         inkscape:connector-curvature="0" />
      <path
         style="fill:#06c693;fill-opacity:1;stroke-width:0.0369"
         id="path2689"
         d="m 34.98,263.8 c 0,2.3 0,4.6 0,6.9 0,0.1 -0.04,0.2 -0.09,0.3 -0.14,0 -0.28,0.1 -0.41,0.1 -1.11,0 -2.21,0.1 -3.32,-0.1 -0.3,0 -0.63,0 -0.96,0 -0.22,0 -0.48,0 -0.74,0 -0.03,-0.1 -0.11,-0.3 -0.11,-0.4 q 0,-3.3 0,-6.6 c 0,-0.1 0.04,-0.2 0.08,-0.3 0.92,-0.2 1.84,0 2.77,0 0.9,0.1 1.81,0 2.78,0.1 z"
         class="cls-16"
         inkscape:connector-curvature="0" />
      <path
         style="fill:#06c693;fill-opacity:1;stroke-width:0.0369"
         id="path2691"
         d="m 42.14,271.1 h -5.57 c -0.05,-0.1 -0.12,-0.2 -0.12,-0.3 q 0,-2.1 0,-4.2 c 0,-0.1 0.05,-0.2 0.06,-0.2 a 0.7819,0.7819 0 0 1 0.08,-0.1 0.1501,0.1501 0 0 1 0.07,0 q 2.54,0 5.08,-0.1 c 0.12,0 0.24,0.1 0.39,0.1 0.04,0.1 0.1,0.2 0.1,0.2 q 0.01,2.2 0,4.3 c 0,0.1 -0.05,0.2 -0.09,0.3 z"
         class="cls-16"
         inkscape:connector-curvature="0" />
    </g>
    <path
       inkscape:connector-curvature="0"
       class="cls-9"
       d="m -31.855077,253.59785 c -0.05,0.1 -0.09,0.2 -0.120002,0.3 -0.68,1.8 -1.899999,3.2 -3.479998,4.3 -1.530001,1.1 -3.22,1.8 -5.050002,2.2 -3.119998,0.7 -6.189998,0.5 -9.19,-0.6 a 11.36,11.36 0 0 1 -3.539998,-2.1 c -0.950002,-0.8 -1.700001,-1.8 -2.230001,-2.9 -0.32,-0.8 -0.53,-1.5 -0.560001,-2.3 0,-0.1 -0.03,-0.2 -0.06,-0.4 -0.17,0.1 -0.289999,0.2 -0.409998,0.3 -0.130001,0.1 -0.250002,0 -0.370001,-0.1 -0.139999,-0.1 -0.200002,-0.2 -0.159999,-0.4 0.179998,-0.6 1.12,-1 1.689999,-0.6 0.159999,0.1 0.23,0.2 0.139999,0.4 -0.119999,0.2 -0.05,0.3 -0.02,0.5 0.260001,2 1.27,3.4 2.800001,4.5 1.259998,1 2.659999,1.6 4.159998,1.9 3.49,0.9 6.88,0.6 10.18,-0.8 a 10.4,10.4 0 0 0 3.269999,-2.3 6.9840001,6.9840001 0 0 0 1.340001,-1.9 c 0.05,-0.1 0.09,-0.2 0.139999,-0.3 -0.11,-0.1 -0.200001,-0.1 -0.28,-0.1 -0.130001,-0.1 -0.27,-0.1 -0.27,-0.3 0.01,-0.1 0.1,-0.2 0.19,-0.2 0.600001,-0.4 1.680001,-0.3 2.190001,0.1 0.23,0.2 0.259999,0.5 0.07,0.7 a 0.4883,0.4883 0 0 1 -0.179999,0.1 c -0.09,0 -0.180001,0 -0.25,0 z"
       id="path6303"
       style="fill:#048b67;fill-opacity:1;stroke:#000000;stroke-width:0.2;stroke-miterlimit:4;stroke-dasharray:none;stroke-opacity:1" />
    <path
       inkscape:connector-curvature="0"
       class="cls-6"
       d="m -37.865079,251.69785 c -0.02,1.7 -1.33,3 -2.949999,3 -1.99,0 -3.120001,-1.5 -3.11,-3.1 0.01,-1.7 1.380001,-3 3.030001,-3 a 3.0720001,3.0720001 0 0 1 3.029998,3.1 z"
       id="path6325"
       style="fill:#048b67;fill-opacity:1;stroke:#000000;stroke-width:0.2;stroke-miterlimit:4;stroke-dasharray:none;stroke-opacity:1" />
    <path
       inkscape:connector-curvature="0"
       class="cls-8"
       d="m -48.165078,250.79785 c -0.03,0.8 -0.490001,1.4 -1.16,1.8 -0.779999,0.5 -1.720001,0.5 -2.440001,0 -0.7,-0.6 -0.989999,-1.5 -0.729998,-2.4 0.269999,-0.9 1.149998,-1.6 2.069999,-1.6 0.91,0 1.78,0.6 2.100001,1.5 0.08,0.2 0.109998,0.5 0.159999,0.7 z"
       id="path6355"
       style="fill:#048b67;fill-opacity:1;stroke:#000000;stroke-width:0.2;stroke-miterlimit:4;stroke-dasharray:none;stroke-opacity:1" />
    <path
       inkscape:connector-curvature="0"
       class="cls-5"
       d="m -40.715078,245.59785 c 0.160001,-0.1 0.209999,-0.3 0.309999,-0.3 0.390001,-0.2 0.81,-0.2 1.23,-0.2 1.470001,0.3 2.570001,1.1 3.330001,2.3 a 0.92260002,0.92260002 0 0 1 0.139999,0.4 0.3789,0.3789 0 0 1 -0.21,0.4 c -0.159999,0.1 -0.309999,0.1 -0.439999,-0.1 -0.130001,-0.1 -0.21,-0.2 -0.300001,-0.4 -0.389998,-0.6 -0.919999,-1.1 -1.559999,-1.5 -0.61,-0.4 -1.280001,-0.6 -2.020001,-0.5 -0.119999,0 -0.25,-0.1 -0.479999,-0.1 z"
       id="path6415"
       style="fill:#048b67;fill-opacity:1;stroke:#000000;stroke-width:0.2;stroke-miterlimit:4;stroke-dasharray:none;stroke-opacity:1" />
    <path
       inkscape:connector-curvature="0"
       class="cls-5"
       d="m -50.855079,244.09785 c 0.29,0 0.61,0.1 0.859999,0.3 0.08,0.1 0.160002,0.2 0.19,0.3 0.02,0.1 0.01,0.2 -0.04,0.3 -0.06,0 -0.19,0.1 -0.29,0.1 -0.08,0 -0.17,-0.1 -0.24,-0.1 -0.38,-0.2 -0.74,-0.1 -1.089999,0 -0.470001,0.3 -0.830001,0.6 -1.110001,1.1 -0.1,0.1 -0.179999,0.3 -0.289999,0.4 a 0.385,0.385 0 0 1 -0.48,0.1 0.41940001,0.41940001 0 0 1 -0.220001,-0.5 0.82540001,0.82540001 0 0 1 0.07,-0.2 c 0.390001,-0.7 0.900001,-1.2 1.620001,-1.6 a 2.142,2.142 0 0 1 1.02,-0.2 z"
       id="path6423"
       style="fill:#048b67;fill-opacity:1;stroke:#000000;stroke-width:0.2;stroke-miterlimit:4;stroke-dasharray:none;stroke-opacity:1" />
    <path
       inkscape:connector-curvature="0"
       class="cls-13"
       d="m -19.015078,227.29785 c -0.499999,-0.1 -0.799999,-0.1 -1.199999,0 -0.100002,0 -0.100002,0.3 -0.100002,0.5 q 0,2.2 0,4.5 c 0,0 0,0.1 0,0.3 0,0.1 0,0.1 0.100002,0.1 a 5.431,5.865 0 0 0 1.199999,0 c 0,-0.4 0.1,-4.8 0,-5.4 z"
       id="path7530"
       style="fill:#023b2c;fill-opacity:1;stroke-width:0.0282"
       inkscape:export-xdpi="300"
       inkscape:export-ydpi="300" />
    <path
       inkscape:connector-curvature="0"
       class="cls-13"
       d="m -20.315079,239.19785 c 0.4,0.2 0.800002,0.2 1.200002,0.2 a 0.5558,0.6003 0 0 0 0.1,0 q 0,-2.8 0,-5.3 c 0,-0.1 0,-0.1 0,-0.2 -0.499999,-0.1 -0.900001,0 -1.300001,0.1 0,0.4 0,4.4 -1e-6,5.2 z"
       id="path7532"
       style="fill:#023b2c;fill-opacity:1;stroke-width:0.0282"
       inkscape:export-xdpi="300"
       inkscape:export-ydpi="300" />
    <path
       inkscape:connector-curvature="0"
       class="cls-13"
       d="m -20.315079,208.99785 c 0.500002,0.1 0.800002,0.1 1.300001,0.1 0,0 0,-0.1 0,-0.2 0.1,-1.7 0.1,-3.5 0.1,-5.2 -0.499999,-0.2 -0.899998,-0.1 -1.4,-0.1 0,0.1 0,0.2 0,0.3 q 0,2.4 0,4.9 c 0,0.1 0,0.1 -1e-6,0.2 z"
       id="path7536"
       style="fill:#023b2c;fill-opacity:1;stroke-width:0.0282"
       inkscape:export-xdpi="300"
       inkscape:export-ydpi="300" />
    <path
       inkscape:connector-curvature="0"
       class="cls-13"
       d="m -20.315079,257.29785 c 0,0.6 0,4.7 0,5.1 a 5.334,5.7600001 0 0 0 1.200002,0.3 c 0,-0.1 0.1,-0.1 0.1,-0.3 0,-1.6 0,-3.4 0,-5.1 -0.499999,0 -0.900001,0 -1.300002,0 z"
       id="path7538"
       style="fill:#023b2c;fill-opacity:1;stroke-width:0.0282"
       inkscape:export-xdpi="300"
       inkscape:export-ydpi="300" />
    <path
       inkscape:connector-curvature="0"
       class="cls-13"
       d="m -20.315079,256.39785 1.200002,0.1 c 0.1,-0.4 0.1,-3.9 0.1,-4.8 -0.4,-0.1 -0.799999,-0.1 -1.300001,0 0,0.3 -0.09,3.8 0,4.7 z"
       id="path7540"
       style="fill:#023b2c;fill-opacity:1;stroke-width:0.0282"
       inkscape:export-xdpi="300"
       inkscape:export-ydpi="300" />
    <path
       inkscape:connector-curvature="0"
       class="cls-13"
       d="m -19.115077,250.69785 c 0.1,-0.5 0.199998,-2.7 0.1,-4.5 0,-0.2 0,-0.2 0,-0.3 -0.200001,0 -0.4,0 -0.499999,0 -0.3,0 -0.600001,0 -0.800002,0 0,0.1 0,0.1 0,0.1 0,1.6 0,3.1 0,4.5 a 0.338,0.36500001 0 0 0 0,0.1 c 0.3,0.1 0.800002,0.1 1.200002,0.1 z"
       id="path7542"
       style="fill:#023b2c;fill-opacity:1;stroke-width:0.0282"
       inkscape:export-xdpi="300"
       inkscape:export-ydpi="300" />
    <path
       inkscape:connector-curvature="0"
       class="cls-13"
       d="m -20.315079,220.59785 1.300001,0.1 c 0,-0.1 0,-0.2 0,-0.3 q 0.1,-2.1 0.1,-4.2 c 0,-0.1 -0.1,-0.2 -0.1,-0.3 -0.3,-0.1 -0.7,-0.1 -1.300001,0 0,0.4 0,3.9 0,4.7 z"
       id="path7544"
       style="fill:#023b2c;fill-opacity:1;stroke-width:0.0282"
       inkscape:export-xdpi="300"
       inkscape:export-ydpi="300" />
    <path
       inkscape:connector-curvature="0"
       class="cls-13"
       d="m -20.315079,214.79785 1.300001,0.1 c 0,-0.1 0,-0.1 0,-0.3 q 0.1,-2.2 0.1,-4.4 c 0,-0.1 -0.1,-0.1 -0.1,-0.2 -0.200001,-0.1 -0.499999,0 -0.7,0 -0.1,0 -0.4,0 -0.600001,0 0,0.1 0,0.1 0,0.2 0,1.5 0,3 0,4.6 z"
       id="path7550"
       style="fill:#023b2c;fill-opacity:1;stroke-width:0.0282"
       inkscape:export-xdpi="300"
       inkscape:export-ydpi="300" />
    <path
       inkscape:connector-curvature="0"
       class="cls-13"
       d="m -19.015078,240.29785 h -1.300001 c 0,0 0,0 0,0 0,0.1 0,0.1 0,0.1 q 0,2.1 0,4.1 a 1.77,1.911 0 0 0 0,0.3 c 0.200001,0.1 0.4,0 0.600001,0.1 0.200001,0 0.4,0 0.600001,0 0.1,-0.1 0.1,-0.1 0.1,-0.1 q 0,-2.2 0,-4.3 c 0,0 0,-0.1 0,-0.2 z"
       id="path7552"
       style="fill:#023b2c;fill-opacity:1;stroke-width:0.0282"
       inkscape:export-xdpi="300"
       inkscape:export-ydpi="300" />
    <path
       inkscape:connector-curvature="0"
       class="cls-13"
       d="m -18.915079,224.09785 c 0,-0.6 0,-1.1 -0.1,-1.7 0,-0.2 0,-0.5 0,-0.7 -0.200001,-0.1 -0.499999,0 -0.7,0 -0.1,0 -0.4,0 -0.600001,0 0,0.1 0,0.1 0,0.2 q 0,2 0,4 a 1.582,1.708 0 0 0 0,0.2 c 0.4,0 0.800002,0.1 1.300001,0.1 0,-0.1 0,-0.1 0.1,-0.1 q 0,-1.1 0,-2 z"
       id="path7554"
       style="fill:#023b2c;fill-opacity:1;stroke-width:0.0282"
       inkscape:export-xdpi="300"
       inkscape:export-ydpi="300" />
    <path
       inkscape:connector-curvature="0"
       class="cls-13"
       d="m -19.115077,263.49785 c -0.4,0.2 -0.800002,0 -1.200002,0.2 0,0.4 -0.09,2.9 0,4.1 0.100002,0 0.3,0 0.500002,0.2 0.3,0 0.399999,0 0.7,0 0,0 0.1,-0.2 0.1,-0.2 q 0,-1.9 0,-3.9 c 0,-0.1 0,-0.1 -0.1,-0.4 z"
       id="path7560"
       style="fill:#023b2c;fill-opacity:1;stroke-width:0.0282"
       inkscape:export-xdpi="300"
       inkscape:export-ydpi="300" />
    <path
       inkscape:connector-curvature="0"
       class="cls-13"
       d="m -19.115077,274.19785 -1.200002,0.1 c -0.09,0.6 -0.09,3.9 0,4.5 h 1.200002 c 0,0 0,-0.2 0,-0.2 q 0.1,-2.1 0.1,-4.1 c 0,-0.1 -0.1,-0.2 -0.1,-0.3 z"
       id="path7562"
       style="fill:#023b2c;fill-opacity:1;stroke-width:0.0282"
       inkscape:export-xdpi="300"
       inkscape:export-ydpi="300" />
    <path
       inkscape:connector-curvature="0"
       class="cls-13"
       d="m -19.015078,268.89785 h -1.300001 c 0,0.1 0,0.1 0,0.2 q 0,1.9 0,3.8 c 0,0 0,0.2 0,0.3 0,0 0.100002,0 0.200001,0 0.300001,0 0.600001,0 1.000001,0 0,-0.1 0.1,-0.1 0.1,-0.1 0,-1.4 0,-2.8 0,-4.2 z"
       id="path7570"
       style="fill:#023b2c;fill-opacity:1;stroke-width:0.0282"
       inkscape:export-xdpi="300"
       inkscape:export-ydpi="300" />
    <text
       xml:space="preserve"
       style="font-style:normal;font-variant:normal;font-weight:normal;font-stretch:normal;font-size:12.00150013px;line-height:1em;font-family:sans-serif;-inkscape-font-specification:'sans-serif, Normal';font-variant-ligatures:normal;font-variant-caps:normal;font-variant-numeric:normal;font-feature-settings:normal;text-align:center;letter-spacing:0px;word-spacing:0px;writing-mode:lr-tb;baseline-shift:baseline;text-anchor:middle;fill:#000000;fill-opacity:1;stroke:none;stroke-width:0.26460001"
       x="-23.053406"
       y="285.28546"
       id="text10086-5-6"
       inkscape:export-xdpi="300"
       inkscape:export-ydpi="300"><tspan
         sodipodi:role="line"
         x="-23.053408"
         y="285.28546"
         style="font-style:normal;font-variant:normal;font-weight:normal;font-stretch:normal;line-height:0em;font-family:Karumbi;-inkscape-font-specification:Karumbi;baseline-shift:baseline;stroke-width:0.26460001"
         id="tspan132-1">Observed in experiment</tspan><tspan
         sodipodi:role="line"
         x="-23.053406"
         y="297.28696"
         style="font-style:normal;font-variant:normal;font-weight:normal;font-stretch:normal;line-height:0em;font-family:Karumbi;-inkscape-font-specification:Karumbi;baseline-shift:baseline;stroke-width:0.26460001"
         id="tspan1215" /></text>
    <text
       xml:space="preserve"
       style="font-style:normal;font-weight:normal;font-size:10.58333302px;line-height:1.25;font-family:sans-serif;letter-spacing:-7.45066643px;word-spacing:0px;fill:#000000;fill-opacity:1;stroke:none;stroke-width:0.26458332"
       x="-106.41637"
       y="225.24257"
       id="text918"><tspan
         sodipodi:role="line"
         id="tspan916"
         x="-106.41637"
         y="225.24257"
         style="font-style:normal;font-variant:normal;font-weight:normal;font-stretch:normal;line-height:1;font-family:karumbi;-inkscape-font-specification:karumbi;letter-spacing:0px;stroke-width:0.26458332">Simulated results</tspan></text>
  </g>
</svg>
