<?xml version="1.0" encoding="UTF-8" standalone="no"?>
<!-- Created with Inkscape (http://www.inkscape.org/) -->

<svg
   xmlns:dc="http://purl.org/dc/elements/1.1/"
   xmlns:cc="http://creativecommons.org/ns#"
   xmlns:rdf="http://www.w3.org/1999/02/22-rdf-syntax-ns#"
   xmlns:svg="http://www.w3.org/2000/svg"
   xmlns="http://www.w3.org/2000/svg"
   xmlns:sodipodi="http://sodipodi.sourceforge.net/DTD/sodipodi-0.dtd"
   xmlns:inkscape="http://www.inkscape.org/namespaces/inkscape"
   width="210mm"
   height="297mm"
   viewBox="0 0 210 297"
   version="1.1"
   id="svg375"
   inkscape:version="0.92.5 (2060ec1f9f, 2020-04-08)"
   sodipodi:docname="ggplot2-graph.svg">
  <defs
     id="defs369" />
  <sodipodi:namedview
     id="base"
     pagecolor="#ffffff"
     bordercolor="#666666"
     borderopacity="1.0"
     inkscape:pageopacity="0.0"
     inkscape:pageshadow="2"
     inkscape:zoom="0.35"
     inkscape:cx="400"
     inkscape:cy="560"
     inkscape:document-units="mm"
     inkscape:current-layer="layer1"
     showgrid="false" />
  <metadata
     id="metadata372">
    <rdf:RDF>
      <cc:Work
         rdf:about="">
        <dc:format>image/svg+xml</dc:format>
        <dc:type
           rdf:resource="http://purl.org/dc/dcmitype/StillImage" />
        <dc:title></dc:title>
      </cc:Work>
    </rdf:RDF>
  </metadata>
  <g
     inkscape:label="Layer 1"
     inkscape:groupmode="layer"
     id="layer1">
    <path
       inkscape:connector-curvature="0"
       class="cls-4"
       d="M 46.49,131.9 L 45.49,132.6 L 25.99,145.4 A 10.12,10.12 0 0 1 27.69,148.1 L 48.69,134.3 A 10.26,10.26 0 0 1 46.49,131.9 Z"
       id="path277"
       style="stroke-width:0.2646" />
    <path
       inkscape:connector-curvature="0"
       class="cls-4"
       d="M 125.5,130.8 L 144.4,118.7 A 10.2,10.2 0 0 1 142.7,116 L 123.8,128.1 A 10.22,10.22 0 0 1 125.5,130.8 Z"
       id="path279"
       style="stroke-width:0.2646" />
    <path
       inkscape:connector-curvature="0"
       class="cls-4"
       d="M 161.4,107.9 L 177.2,97.81 A 10.32,10.32 0 0 1 175.5,95.14 L 159.7,105.2 A 10.25,10.25 0 0 1 161.4,107.9 Z"
       id="path281"
       style="stroke-width:0.2646" />
    <path
       inkscape:connector-curvature="0"
       class="cls-4"
       d="M 111.7,125.6 L 105.4,116.6 L 104.5,115.3 L 100.9,110.1 A 10.23,10.23 0 0 1 98.29,111.9 L 104.5,120.9 L 105.4,122.2 L 109.1,127.5 A 10.28,10.28 0 0 1 111.7,125.6 Z"
       id="path283"
       style="stroke-width:0.2646" />
    <path
       inkscape:connector-curvature="0"
       class="cls-4"
       d="M 64.89,123.6 L 86.29,109.6 A 10.27,10.27 0 0 1 84.49,106.9 L 63.69,120.6 L 63.59,120.7 A 10.19,10.19 0 0 1 64.89,123.6 Z"
       id="path285"
       style="stroke-width:0.2646" />
    <path
       inkscape:connector-curvature="0"
       class="cls-5"
       d="M 64.89,123.6 A 10.23,10.23 0 1 0 46.29,131.6 C 46.29,131.7 46.39,131.8 46.49,131.9 A 10.23,10.23 0 0 0 64.89,123.6 Z"
       id="path287"
       style="stroke-width:0.2646" />
    <path
       inkscape:connector-curvature="0"
       class="cls-6"
       d="M 21.29,161.9 C 21.59,161.8 21.89,161.7 22.19,161.6 A 10.24,10.24 0 0 0 27.69,148.1 A 10.12,10.12 0 0 0 25.99,145.4 A 10.22,10.22 0 0 0 22.19,142.7 C 21.89,142.6 21.59,142.5 21.29,142.4 A 10.24,10.24 0 0 0 15.49,142.3 V 162 A 10.27,10.27 0 0 0 21.29,161.9 Z"
       id="path289"
       style="stroke-width:0.2646" />
    <path
       inkscape:connector-curvature="0"
       class="cls-7"
       d="M 104.1,102.7 A 10.27,10.27 0 1 0 100.9,110.1 A 10.23,10.23 0 0 0 104.1,102.7 Z"
       id="path291"
       style="stroke-width:0.2646" />
    <path
       inkscape:connector-curvature="0"
       class="cls-8"
       d="M 123.8,128.1 A 10.23,10.23 0 0 0 106.4,131.6 C 106.3,131.9 106.3,132.2 106.2,132.6 A 10.23,10.23 0 1 0 126.1,132.6 C 126,132.2 125.9,131.9 125.8,131.6 C 125.7,131.3 125.6,131 125.5,130.8 A 10.22,10.22 0 0 0 123.8,128.1 Z"
       id="path293"
       style="stroke-width:0.2646" />
    <path
       inkscape:connector-curvature="0"
       class="cls-9"
       d="M 162.2,111.9 A 10.23,10.23 0 0 0 147.1,102.9 A 10.09,10.09 0 0 0 146.1,103.5 A 10.22,10.22 0 0 0 146.1,120.3 A 10.05,10.05 0 0 0 147.1,120.8 A 10.23,10.23 0 0 0 162.2,111.9 Z"
       id="path295"
       style="stroke-width:0.2646" />
    <path
       inkscape:connector-curvature="0"
       class="cls-10"
       d="M 174.6,91.04 C 174.6,91.17 174.6,91.3 174.6,91.43 A 10.23,10.23 0 0 0 187.3,101 C 187.6,100.9 187.9,100.8 188.2,100.7 A 10.25,10.25 0 0 0 193.1,97.1 L 175.5,86.91 A 10.13,10.13 0 0 0 174.6,90.51 C 174.6,90.69 174.6,90.88 174.6,91.04 Z"
       id="path297"
       style="stroke-width:0.2646" />
  </g>
</svg>
