<?xml version="1.0" encoding="UTF-8" standalone="no"?>
<!-- Created with Inkscape (http://www.inkscape.org/) -->

<svg
   xmlns:dc="http://purl.org/dc/elements/1.1/"
   xmlns:cc="http://creativecommons.org/ns#"
   xmlns:rdf="http://www.w3.org/1999/02/22-rdf-syntax-ns#"
   xmlns:svg="http://www.w3.org/2000/svg"
   xmlns="http://www.w3.org/2000/svg"
   xmlns:sodipodi="http://sodipodi.sourceforge.net/DTD/sodipodi-0.dtd"
   xmlns:inkscape="http://www.inkscape.org/namespaces/inkscape"
   width="138.86836mm"
   height="93.533195mm"
   viewBox="0 0 138.86836 93.533196"
   version="1.1"
   id="svg1650"
   inkscape:version="0.92.5 (2060ec1f9f, 2020-04-08)"
   sodipodi:docname="theory-logic.svg">
  <defs
     id="defs1644" />
  <sodipodi:namedview
     id="base"
     pagecolor="#ffffff"
     bordercolor="#666666"
     borderopacity="1.0"
     inkscape:pageopacity="0.0"
     inkscape:pageshadow="2"
     inkscape:zoom="1.4"
     inkscape:cx="487.56413"
     inkscape:cy="201.47281"
     inkscape:document-units="mm"
     inkscape:current-layer="layer1"
     showgrid="false"
     fit-margin-top="5"
     fit-margin-left="5"
     fit-margin-right="5"
     fit-margin-bottom="5"
     inkscape:window-width="1920"
     inkscape:window-height="1015"
     inkscape:window-x="0"
     inkscape:window-y="0"
     inkscape:window-maximized="1" />
  <metadata
     id="metadata1647">
    <rdf:RDF>
      <cc:Work
         rdf:about="">
        <dc:format>image/svg+xml</dc:format>
        <dc:type
           rdf:resource="http://purl.org/dc/dcmitype/StillImage" />
        <dc:title></dc:title>
      </cc:Work>
    </rdf:RDF>
  </metadata>
  <g
     inkscape:label="Layer 1"
     inkscape:groupmode="layer"
     id="layer1"
     transform="translate(-65.928613,-206.66605)">
    <path
       inkscape:connector-curvature="0"
       class="cls-13"
       d="m 168.36584,259.36265 v 4.6 a 4.7259999,5.103 0 0 0 1.3,0.2 c 0.1,-0.4 0.1,-4 0,-4.7 -0.4,-0.1 -0.8,0 -1.3,-0.1 z"
       id="path7558"
       style="fill:#023b2c;fill-opacity:1;stroke-width:0.0282"
       inkscape:export-xdpi="300"
       inkscape:export-ydpi="300" />
    <g
       id="g1334"
       transform="translate(67.167641,97.952642)"
       inkscape:export-xdpi="300"
       inkscape:export-ydpi="300">
      <path
         style="fill:#06d6a0;fill-opacity:0.50199998;stroke:#000000;stroke-width:0.0435;stroke-miterlimit:4;stroke-dasharray:none;stroke-opacity:1"
         id="path1583"
         d="m 4.395,173 -0.603,-0.1 c 0.13,-0.3 0.391,-0.2 0.603,-0.2 h 1.386 c 0.733,0 1.467,-0.2 2.201,-0.5 0.907,-0.2 1.857,-0.5 2.808,-0.8 0.12,-0.1 0.26,-0.2 0.42,-0.2 1.57,-0.6 3.03,-1.4 4.5,-2.2 0.87,-0.3 1.68,-0.9 2.45,-1.3 0.77,-0.5 1.6,-0.9 2.38,-1.4 q 1.68,-1.2 3.36,-2.3 c 0.96,-0.7 1.92,-1.4 2.88,-2.1 0.62,-0.4 1.24,-0.9 1.84,-1.3 0.93,-0.8 1.85,-1.5 2.76,-2.2 1.01,-0.8 2.04,-1.6 3.03,-2.4 0.85,-0.7 1.66,-1.4 2.5,-2.1 0.58,-0.5 1.16,-1 1.77,-1.4 0.06,-0.2 0.1,-0.2 0.14,-0.2 0.71,-0.6 1.41,-1.3 2.15,-2 1.28,-1.1 2.38,-2.3 3.63,-3.3 1.94,-1.8 3.63,-3.7 5.5,-5.4 0.91,-1.3 2.02,-2.3 3.14,-3.3 1.28,-1.2 2.42,-2.4 3.75,-3.6 0.7,-0.6 1.34,-1.2 2.12,-1.8 0.81,-0.6 1.51,-1.4 2.28,-2 0.87,-0.6 1.82,-1.2 2.67,-1.8 a 17.71,17.71 0 0 1 2.86,-1.6 c 0.9,-0.4 1.81,-0.9 2.75,-1.1 0.95,-0.4 1.94,-0.6 2.94,-0.8 0.21,0 0.43,0 0.69,0 0.35,0 0.73,-0.1 1.08,-0.1 a 4.547,4.547 0 0 1 0.69,0 c 0.3,0 0.61,0.1 0.95,0.1 1.34,0 2.68,0.3 3.92,0.8 1.14,0.3 2.25,0.8 3.34,1.5 1.36,0.6 2.7,1.6 3.96,2.6 1.08,0.8 2.12,1.7 3.07,2.7 0.81,0.9 1.62,1.9 2.41,2.7 0.34,0.5 0.73,0.9 1.08,1.3 0.94,1.2 1.93,2.3 2.85,3.6 q 1.99,2.7 3.85,5.5 3.4,4.9 6.7,9.9 c 1.5,2.3 3.1,4.6 4.9,6.8 0.6,0.9 1.3,1.7 2,2.5 0.8,0.9 1.6,1.7 2.3,2.5 0.7,0.6 1.5,1.2 2.2,1.8 0.7,0.6 1.5,1.1 2.1,1.6 0.5,0.3 0.9,0.5 1.3,0.7 0,0.1 0.1,0.3 0.1,0.3 0,0 0,0.1 0,0.1 a 0.1269,0.1269 0 0 1 -0.1,0 q -3.2,0 -6.3,0 -8,0 -15.95,0 c -1.21,0 -2.37,0 -3.54,0 -1.03,0 -2.02,0 -3.02,0 q -14.67,0 -29.29,0 c -0.46,0 -0.91,0 -1.38,0.1 -0.22,0.1 -0.53,0.1 -0.79,0.1 q -4.08,0 -8.14,0 h -7.1 -14.62 c -0.15,0 -0.3,0 -0.43,0 -0.7,0.2 -1.42,0.1 -2.13,0.1 -2.21,0 -4.42,0 -6.62,0 H 16.82 8.504 c -0.099,0 -0.213,0 -0.343,0.1 -0.734,0.1 -1.467,0 -2.202,0.1 -0.13,0 -0.227,0 -0.342,0 z"
         class="cls-1"
         inkscape:connector-curvature="0" />
      <path
         style="fill:#048b67;fill-opacity:1;stroke-width:0.0459"
         id="path4968"
         d="m 66.74,154.3 a 4.132,4.132 0 0 1 -4.15,-4.1 c -0.02,-2.3 1.83,-4.2 4.12,-4.2 1.88,-0.1 4.1,1.4 4.15,4.2 0.05,2.1 -1.84,4.1 -4.12,4.1 z"
         class="cls-8"
         inkscape:connector-curvature="0" />
      <path
         style="fill:#048b67;fill-opacity:1;stroke-width:0.0459"
         id="path4992"
         d="m 84.38,153 c -1.46,0 -3.04,-1.2 -3.02,-3.1 0,-1.7 1.52,-2.9 3.12,-2.9 1.69,0 3.02,1.3 3.04,2.9 0,1.9 -1.59,3.1 -3.14,3.1 z"
         class="cls-8"
         inkscape:connector-curvature="0" />
      <path
         style="fill:#048b67;fill-opacity:1;stroke-width:0.0459"
         id="path5002"
         d="m 71.56,156.9 c 0.27,-0.1 0.46,0 0.65,0.2 0.47,0.3 0.93,0.6 1.4,0.8 0.98,0.6 2.04,1 3.2,1 1.25,0 2.17,-0.5 2.78,-1.6 a 5.474,5.474 0 0 0 0.55,-1.4 c 0.07,-0.4 0.26,-0.6 0.49,-0.5 0.26,0 0.4,0.4 0.3,0.6 -0.43,1.1 -0.67,2.3 -0.96,3.4 a 4.333,4.333 0 0 1 -0.87,1.7 c -0.86,1.2 -2.1,1.4 -3.37,0.8 -0.55,-0.2 -1.04,-0.5 -1.48,-1 -0.7,-0.7 -1.3,-1.4 -1.78,-2.2 -0.27,-0.4 -0.52,-1 -0.91,-1.3 -0.14,-0.1 -0.17,-0.4 0,-0.5 z"
         class="cls-9"
         inkscape:connector-curvature="0" />
      <path
         style="fill:#048b67;fill-opacity:1;stroke-width:0.0459"
         id="path5042"
         d="m 85.24,140.1 c -0.38,0 -0.76,0.1 -1.14,0.2 -0.19,0.1 -0.38,0.3 -0.58,0.3 -0.18,0.1 -0.37,0.1 -0.48,-0.2 -0.1,-0.1 -0.02,-0.3 0.14,-0.4 0.74,-0.7 1.61,-0.9 2.6,-0.9 0.94,0.1 1.67,0.5 2.26,1.2 0.65,0.9 1.01,1.9 1.16,2.9 a 1.199,1.199 0 0 1 -0.01,0.3 c -0.04,0.4 -0.32,0.6 -0.58,0.6 -0.26,0 -0.5,-0.1 -0.59,-0.3 A 3.509,3.509 0 0 1 87.85,143 c -0.1,-0.6 -0.28,-1.3 -0.67,-1.9 -0.46,-0.7 -1.07,-1 -1.94,-1 z"
         class="cls-5"
         inkscape:connector-curvature="0" />
      <path
         style="fill:#048b67;fill-opacity:1;stroke-width:0.0459"
         id="path5076"
         d="m 64.88,137.2 c 0.67,0 1.34,0.3 1.8,0.8 0.12,0.2 0.18,0.4 0.23,0.5 0.03,0.1 -0.02,0.2 -0.08,0.3 a 0.303,0.303 0 0 1 -0.25,0 1.001,1.001 0 0 1 -0.31,-0.2 c -0.75,-0.6 -1.58,-0.6 -2.4,-0.1 a 2.539,2.539 0 0 0 -1.22,1.1 c -0.08,0.3 -0.14,0.4 -0.23,0.5 a 0.4941,0.4941 0 0 1 -0.55,0.2 c -0.24,0 -0.38,-0.2 -0.33,-0.4 a 1.3,1.3 0 0 1 0.05,-0.4 c 0.6,-1.5 1.99,-2.3 3.29,-2.3 z"
         class="cls-20"
         inkscape:connector-curvature="0" />
      <path
         style="fill:#023b2c;fill-opacity:1;stroke-width:0.0282"
         id="path7546"
         d="m 101.3,152.1 c 0.2,0 0.4,0.1 0.6,0.1 0.2,0 0.4,0.1 0.6,0.1 0.1,-0.4 0.1,-4.2 0.1,-4.8 -0.5,-0.2 -0.9,0 -1.3,0 0,0.1 -0.1,0.1 -0.1,0.2 q 0,2.1 0,4.2 c 0,0 0,0.1 0.1,0.2 z"
         class="cls-13"
         inkscape:connector-curvature="0" />
      <path
         style="fill:#023b2c;fill-opacity:1;stroke-width:0.0282"
         id="path7564"
         d="m 102.6,157.3 c -0.5,0 -0.9,0 -1.3,0.2 -0.1,0.5 -0.1,3.4 -0.1,3.9 0.5,0.2 0.8,0.2 1.3,0.2 0.1,-0.5 0.1,-3.5 0.1,-4.3 z"
         class="cls-13"
         inkscape:connector-curvature="0" />
      <path
         style="fill:#023b2c;fill-opacity:1;stroke-width:0.0282"
         id="path7566"
         d="m 102.6,162.5 c -0.2,0 -0.3,0 -0.3,0 -0.3,0 -0.6,0 -1,0 0,0.1 -0.1,0.2 -0.1,0.3 q 0,1.9 0,3.8 c 0,0.1 0,0.1 0.1,0.2 0.4,0.1 0.7,0.2 1,0.3 0.1,0 0.2,0 0.2,0 0.1,-0.4 0.1,-3.6 0.1,-4.6 z"
         class="cls-13"
         inkscape:connector-curvature="0" />
      <path
         style="fill:#023b2c;fill-opacity:1;stroke-width:0.0282"
         id="path7574"
         d="m 102.5,172.6 c -0.4,0 -0.8,0 -1.1,0 0,0 -0.1,0 -0.1,0 0,0 -0.1,0 -0.1,0 q 0,1.9 0,3.7 c 0,0.2 0,0.2 0,0.2 0.5,0.2 0.8,0.2 1.3,0.2 0.1,-0.5 0.1,-3.5 0,-4.1 z"
         class="cls-13"
         inkscape:connector-curvature="0" />
      <path
         style="fill:#023b2c;fill-opacity:1;stroke-width:0.0282"
         id="path7576"
         d="m 101.3,128.7 c 0.4,0.1 0.8,0.1 1.3,0.1 0,-0.5 0,-2.7 0,-3.6 -0.3,-0.2 -0.6,-0.2 -1.3,-0.2 -0.1,0.4 -0.1,2.7 0,3.7 z"
         class="cls-13"
         inkscape:connector-curvature="0" />
      <path
         style="fill:#023b2c;fill-opacity:1;stroke-width:0.0282"
         id="path7578"
         d="m 101.3,134.1 c -0.1,0.4 -0.1,2.6 0,3.4 0.4,0.3 0.8,0.2 1.3,0.3 0,-0.4 0,-2.7 0,-3.8 -0.5,-0.1 -0.9,0 -1.3,0.1 z"
         class="cls-13"
         inkscape:connector-curvature="0" />
      <path
         style="fill:#023b2c;fill-opacity:1;stroke-width:0.0282"
         id="path7582"
         d="m 101.2,146.4 h 1.3 c 0.1,0 0.1,-0.1 0.1,-0.2 q 0,-1.6 0,-3.2 c 0,-0.1 0,-0.1 0,-0.2 -0.1,0 -0.2,0 -0.3,0 -0.3,0 -0.6,0 -1,0.1 0,0 -0.1,0.2 -0.1,0.3 0,0.2 0,0.5 0,0.6 0,0.9 0,1.7 0,2.6 z"
         class="cls-13"
         inkscape:connector-curvature="0" />
      <path
         style="fill:#023b2c;fill-opacity:1;stroke-width:0.0282"
         id="path7584"
         d="m 102.6,167.8 c -0.1,0 -0.2,0 -0.3,0 -0.3,-0.1 -0.6,-0.1 -1.1,-0.2 0,0.5 0,0.9 0,1.3 0,0.5 0,0.9 0,1.3 0,0.4 0,0.8 0,1.3 0.5,0.2 0.8,0.2 1.3,0.3 0,-0.1 0.1,-0.3 0.1,-0.4 q 0,-1.6 0,-3.3 c 0,-0.1 0,-0.2 0,-0.3 z"
         class="cls-13"
         inkscape:connector-curvature="0" />
      <path
         style="fill:#023b2c;fill-opacity:1;stroke-width:0.0282"
         id="path7588"
         d="m 101.3,133.1 a 1.348,1.456 0 0 0 0.2,0.1 c 0.3,0 0.7,0.1 1.1,0.1 0,-0.4 0.1,-2.5 0,-3.6 -0.3,-0.1 -0.9,-0.1 -1.3,0.1 -0.1,0.4 -0.1,2.9 0,3.3 z"
         class="cls-13"
         inkscape:connector-curvature="0" />
      <path
         style="fill:#023b2c;fill-opacity:1;stroke-width:0.0282"
         id="path7592"
         d="m 102.6,153.2 h -1.3 c -0.1,0.3 -0.1,2.2 -0.1,3.2 a 4.297,4.641 0 0 0 1.3,0.1 c 0.1,-0.5 0.1,-2.7 0.1,-3.3 z"
         class="cls-13"
         inkscape:connector-curvature="0" />
      <path
         style="fill:#023b2c;fill-opacity:1;stroke-width:0.0282"
         id="path7594"
         d="m 101.3,141.7 c 0.4,0.1 0.8,0 1.2,0.1 0.1,-0.4 0.1,-2.3 0.1,-3.2 -0.5,-0.1 -0.9,0 -1.3,0 -0.1,0.4 -0.1,2 0,3.1 z"
         class="cls-13"
         inkscape:connector-curvature="0" />
      <path
         style="fill:#023b2c;fill-opacity:1;stroke-width:0.0282"
         id="path7600"
         d="m 102.6,121 c -0.1,0 -0.2,0 -0.3,0 -0.3,0 -0.6,0 -1,0 -0.1,0.5 -0.1,2.4 0,2.9 0.1,0.1 0.2,0.1 0.4,0.1 0.3,0.1 0.6,0.2 0.9,0.2 v -0.4 q 0,-1.4 0,-2.8 z"
         class="cls-13"
         inkscape:connector-curvature="0" />
    </g>
    <text
       xml:space="preserve"
       style="font-style:normal;font-variant:normal;font-weight:normal;font-stretch:normal;font-size:12px;line-height:1em;font-family:sans-serif;-inkscape-font-specification:'sans-serif, Normal';font-variant-ligatures:normal;font-variant-caps:normal;font-variant-numeric:normal;font-feature-settings:normal;text-align:center;letter-spacing:0px;word-spacing:0px;writing-mode:lr-tb;baseline-shift:baseline;text-anchor:middle;fill:#000000;fill-opacity:1;stroke:none;stroke-width:0.26460001"
       x="94.313652"
       y="217.79805"
       id="text10086-5"
       inkscape:export-xdpi="300"
       inkscape:export-ydpi="300"><tspan
         sodipodi:role="line"
         x="95.963654"
         y="217.79805"
         style="font-style:normal;font-variant:normal;font-weight:normal;font-stretch:normal;line-height:0em;font-family:Karumbi;-inkscape-font-specification:Karumbi;baseline-shift:baseline;stroke-width:0.26460001"
         id="tspan1352">Theoretical </tspan><tspan
         sodipodi:role="line"
         x="95.963654"
         y="229.79805"
         style="font-style:normal;font-variant:normal;font-weight:normal;font-stretch:normal;line-height:0em;font-family:Karumbi;-inkscape-font-specification:Karumbi;baseline-shift:baseline;stroke-width:0.26460001"
         id="tspan2263">distribution </tspan><tspan
         sodipodi:role="line"
         x="94.313652"
         y="241.79805"
         style="font-style:normal;font-variant:normal;font-weight:normal;font-stretch:normal;line-height:0em;font-family:Karumbi;-inkscape-font-specification:Karumbi;baseline-shift:baseline;stroke-width:0.26460001"
         id="tspan2267">of statistic</tspan></text>
    <text
       xml:space="preserve"
       style="font-style:normal;font-weight:normal;font-size:10.58333302px;line-height:1.25;font-family:sans-serif;letter-spacing:-7.45066643px;word-spacing:0px;fill:#000000;fill-opacity:1;stroke:none;stroke-width:0.26458332"
       x="138.87802"
       y="277.57376"
       id="text2253"><tspan
         sodipodi:role="line"
         id="tspan2251"
         x="138.87802"
         y="277.57376"
         style="font-style:normal;font-variant:normal;font-weight:normal;font-stretch:normal;line-height:1;font-family:Karumbi;-inkscape-font-specification:Karumbi;letter-spacing:0px;stroke-width:0.26458332">standardized statistic </tspan><tspan
         sodipodi:role="line"
         x="138.87802"
         y="291.35748"
         style="font-style:normal;font-variant:normal;font-weight:normal;font-stretch:normal;line-height:1;font-family:Karumbi;-inkscape-font-specification:Karumbi;letter-spacing:0px;stroke-width:0.26458332"
         id="tspan2265">(from experiment)</tspan></text>
  </g>
</svg>
